<?xml version="1.0" encoding="UTF-8"?>
<svg version="1.1" xmlns="http://www.w3.org/2000/svg" width="734" height="205">
<path d="M0 0 C1.06845657 -0.00708481 2.13691315 -0.01416962 3.23774719 -0.02146912 C4.41495834 -0.0189917 5.59216949 -0.01651428 6.80505371 -0.01396179 C8.04083664 -0.01907272 9.27661957 -0.02418365 10.54985046 -0.02944946 C13.94446648 -0.0409918 17.33883883 -0.04341532 20.73345757 -0.04088616 C23.56416745 -0.03981838 26.39485467 -0.04469478 29.22555971 -0.04949158 C35.90132618 -0.06059561 42.57703638 -0.06101896 49.25280762 -0.05497742 C56.14772502 -0.04893369 63.04243857 -0.06125658 69.93732119 -0.08254749 C75.85073288 -0.10013858 81.76407955 -0.10616887 87.67751646 -0.10290974 C91.21217609 -0.10109297 94.74669027 -0.1037721 98.28132629 -0.11762428 C102.2203071 -0.13248293 106.1590263 -0.12325435 110.09802246 -0.11161804 C111.27523361 -0.11926178 112.45244476 -0.12690552 113.66532898 -0.13478088 C115.26801384 -0.12425941 115.26801384 -0.12425941 116.90307617 -0.11352539 C118.30122684 -0.113777 118.30122684 -0.113777 119.72762299 -0.1140337 C120.46151497 0.00962724 121.19540695 0.13328817 121.95153809 0.26069641 C124.00374045 3.33899995 124.20259212 3.96915695 124.2122345 7.44235229 C124.21931931 8.29341553 124.22640411 9.14447876 124.23370361 10.02133179 C124.2312262 10.95182846 124.22874878 11.88232513 124.22619629 12.84101868 C124.23130722 13.8233548 124.23641815 14.80569092 124.24168396 15.8177948 C124.25560595 19.07095905 124.25462154 22.32391213 124.25231934 25.57710266 C124.25620417 27.83246948 124.26053839 30.08783556 124.26530457 32.34320068 C124.27277191 37.0718269 124.27247127 41.80037846 124.26721191 46.52900696 C124.26140957 52.6013148 124.27836443 58.6733184 124.30155659 64.7455759 C124.31625519 69.40286051 124.31717104 74.06007112 124.31404686 78.7173748 C124.31456179 80.95697064 124.31983153 83.19657043 124.32985878 85.43614388 C124.34213402 88.56088961 124.33548578 91.68503328 124.32385254 94.80976868 C124.33149628 95.74228958 124.33914001 96.67481049 124.34701538 97.6355896 C124.34000107 98.48383301 124.33298676 99.33207642 124.32575989 100.20602417 C124.32592763 100.94509286 124.32609537 101.68416155 124.3262682 102.44562626 C123.95153809 104.26069641 123.95153809 104.26069641 120.95153809 106.26069641 C118.63860321 106.51237869 118.63860321 106.51237869 115.86547852 106.5146637 C114.81392075 106.52030334 113.76236298 106.52594299 112.67893982 106.53175354 C110.94892479 106.52568085 110.94892479 106.52568085 109.18395996 106.51948547 C107.36173668 106.52474243 107.36173668 106.52474243 105.50270081 106.53010559 C102.17005146 106.53740709 98.83764996 106.53568539 95.50501442 106.52934742 C92.01904591 106.52428749 88.53308806 106.52897885 85.04711914 106.53211975 C79.19281104 106.53575942 73.33855338 106.5309603 67.48425293 106.5214386 C60.71377314 106.51055402 53.94341379 106.5140796 47.17293692 106.52509141 C41.36225143 106.53416428 35.55160224 106.53544957 29.74091196 106.53021407 C26.26942883 106.52709436 22.79800233 106.52668503 19.32652283 106.53328705 C15.45733957 106.54013128 11.58829148 106.53064771 7.71911621 106.51948547 C6.56577286 106.52353394 5.4124295 106.5275824 4.22413635 106.53175354 C3.17257858 106.52611389 2.12102081 106.52047424 1.03759766 106.5146637 C0.12246651 106.51390965 -0.79266464 106.51315559 -1.73552704 106.51237869 C-4.04846191 106.26069641 -4.04846191 106.26069641 -7.04846191 104.26069641 C-7.42319202 102.42721558 -7.42319202 102.42721558 -7.42268372 100.16133118 C-7.42969803 99.30322845 -7.43671234 98.44512573 -7.44393921 97.5610199 C-7.43629547 96.61757721 -7.42865173 95.67413452 -7.42077637 94.70210266 C-7.42442703 93.710159 -7.4280777 92.71821533 -7.43183899 91.69621277 C-7.43996982 88.40503518 -7.42631318 85.11434603 -7.41174316 81.82319641 C-7.41122486 79.54398092 -7.4117414 77.26476498 -7.41325378 74.98554993 C-7.41316395 70.20382533 -7.402711 65.42226894 -7.38464355 60.64057922 C-7.36195609 54.49990779 -7.36141109 48.35948232 -7.3681612 42.21878052 C-7.37149681 37.51087748 -7.36487879 32.8030309 -7.35503197 28.09513855 C-7.35117263 25.83043208 -7.35003477 23.56571934 -7.35161781 21.30101013 C-7.35198715 18.14031428 -7.33940517 14.97993816 -7.32312012 11.81929016 C-7.32559753 10.87584747 -7.32807495 9.93240479 -7.33062744 8.96037292 C-7.32354263 8.1022702 -7.31645782 7.24416748 -7.30915833 6.36006165 C-7.30710546 5.61231979 -7.30505259 4.86457794 -7.30293751 4.09417725 C-6.69623818 -0.27705371 -3.65135195 0.00804178 0 0 Z M0.95153809 8.26069641 C0.95153809 12.22069641 0.95153809 16.18069641 0.95153809 20.26069641 C15.78073684 20.30695407 30.60992031 20.34266497 45.43917656 20.36432076 C52.32434416 20.37464226 59.20946616 20.38871922 66.09460449 20.41157532 C72.73408026 20.43360544 79.37352097 20.44525187 86.01303482 20.4504509 C88.55127841 20.45415787 91.08951928 20.4613962 93.62774277 20.47215652 C97.17176764 20.4865887 100.71559422 20.48867783 104.25964355 20.48774719 C105.31843719 20.49493774 106.37723083 20.5021283 107.46810913 20.50953674 C108.43007202 20.50678741 109.39203491 20.50403809 110.38314819 20.50120544 C111.22197981 20.50304903 112.06081142 20.50489262 112.92506218 20.50679207 C115.17892744 20.44444354 115.17892744 20.44444354 116.95153809 18.26069641 C116.62153809 14.96069641 116.29153809 11.66069641 115.95153809 8.26069641 C78.00153809 8.26069641 40.05153809 8.26069641 0.95153809 8.26069641 Z M0.95153809 27.26069641 C-0.49258528 30.14894314 -0.12297871 32.59578087 -0.07019043 35.82173157 C-0.06039878 36.50591345 -0.05060713 37.19009533 -0.04051876 37.89500999 C-0.00759965 40.11336397 0.03238881 42.33152695 0.07263184 44.54975891 C0.09397158 45.91783441 0.11484882 47.2859172 0.13525391 48.65400696 C0.21423696 53.73132717 0.30218508 58.80850472 0.38903809 63.88569641 C0.57466309 75.22944641 0.76028809 86.57319641 0.95153809 98.26069641 C38.90153809 98.26069641 76.85153809 98.26069641 115.95153809 98.26069641 C117.37939158 95.40498942 117.07095295 92.98355285 117.06506348 89.79145813 C117.06518401 89.11718843 117.06530455 88.44291874 117.06542873 87.74821663 C117.06468142 85.56223901 117.05706144 83.3763463 117.04919434 81.19038391 C117.04772436 79.84215842 117.04670399 78.49393236 117.04614258 77.14570618 C117.0408962 72.14236089 117.02693503 67.13902782 117.01403809 62.13569641 C116.98310059 45.36757141 116.98310059 45.36757141 116.95153809 28.26069641 C78.67153809 27.93069641 40.39153809 27.60069641 0.95153809 27.26069641 Z " fill="#C31308" transform="translate(62.0484619140625,36.73930358886719)"/>
<path d="M0 0 C0.75268661 -0.0066568 1.50537323 -0.0133136 2.28086853 -0.02017212 C3.87887122 -0.03031083 5.47691635 -0.03498876 7.07495117 -0.03466797 C9.4940636 -0.03900286 11.91129347 -0.07519794 14.33007812 -0.11328125 C22.35729584 -0.17148417 29.48152965 -0.12612538 36.46484375 4.3359375 C37.82609375 5.17125 37.82609375 5.17125 39.21484375 6.0234375 C45.26756837 12.24429336 47.55169351 19.23546247 47.6418457 27.77783203 C47.66109856 29.37572067 47.66109856 29.37572067 47.68074036 31.00588989 C47.68812729 32.14863373 47.69551422 33.29137756 47.703125 34.46875 C47.71119675 35.65636932 47.71926849 36.84398865 47.72758484 38.06759644 C47.7414037 40.58085683 47.75213566 43.09413582 47.76000977 45.60742188 C47.77151769 48.16574642 47.79195037 50.72404718 47.8215332 53.28222656 C47.86440087 56.9903994 47.88040711 60.69785949 47.890625 64.40625 C47.90813309 65.53684845 47.92564117 66.6674469 47.94367981 67.83230591 C47.92082005 76.30379516 46.58819358 84.10665447 41.45703125 91.0546875 C40.75835937 91.6425 40.0596875 92.2303125 39.33984375 92.8359375 C38.65664063 93.444375 37.9734375 94.0528125 37.26953125 94.6796875 C28.89237943 99.62664066 20.13794761 99.78693392 10.63061523 99.67211914 C8.50662181 99.64820418 6.38386245 99.65161942 4.25976562 99.65820312 C-6.11559857 99.61564262 -6.11559857 99.61564262 -9.53515625 97.3359375 C-9.83182243 94.29681779 -9.93394944 91.46136595 -9.9074707 88.41992188 C-9.91112137 87.4962532 -9.91477203 86.57258453 -9.91853333 85.6209259 C-9.92666261 82.55699477 -9.91300894 79.49358857 -9.8984375 76.4296875 C-9.89791918 74.30741374 -9.89843579 72.18513949 -9.89994812 70.06286621 C-9.89985829 65.61068575 -9.88940682 61.15868596 -9.87133789 56.70654297 C-9.84865042 50.98960532 -9.84810548 45.27293188 -9.85485554 39.55596161 C-9.85819144 35.1723189 -9.85157257 30.78873682 -9.8417263 26.40510559 C-9.83786748 24.2967002 -9.8367289 22.18828808 -9.83831215 20.07987976 C-9.83868156 17.13710603 -9.8260974 14.19467548 -9.80981445 11.25195312 C-9.81229187 10.37396561 -9.81476929 9.49597809 -9.81732178 8.59138489 C-9.74513849 0.44873032 -7.47302993 0.0228772 0 0 Z M0.46484375 9.3359375 C0.46484375 35.7359375 0.46484375 62.1359375 0.46484375 89.3359375 C19.38345532 91.16265988 19.38345532 91.16265988 34.33984375 83.5859375 C37.72432302 76.81697895 37.77250411 69.77108293 37.765625 62.37109375 C37.77205269 60.82197548 37.77205269 60.82197548 37.77861023 59.24156189 C37.78432801 57.06738007 37.78487272 54.89317912 37.78051758 52.71899414 C37.77735665 49.41193713 37.80085295 46.10577489 37.82617188 42.79882812 C37.82844519 40.67708445 37.82914821 38.55533839 37.828125 36.43359375 C37.83733475 35.45520035 37.84654449 34.47680695 37.85603333 33.46876526 C37.80561121 25.90402174 36.91396024 19.27487729 31.96484375 13.3359375 C27.96499716 10.13606023 24.45507508 10.09555284 19.46484375 9.7734375 C17.60859375 9.64775391 17.60859375 9.64775391 15.71484375 9.51953125 C10.6358788 9.30012743 5.54854545 9.3359375 0.46484375 9.3359375 Z " fill="#C1140A" transform="translate(233.53515625,43.6640625)"/>
<path d="M0 0 C0.56976562 0.36222656 1.13953125 0.72445312 1.7265625 1.09765625 C6.87245069 4.83666368 9.05173817 10.1552145 11 16 C11.10827247 17.86375702 11.15883011 19.73108949 11.17700195 21.59790039 C11.19625481 23.32098167 11.19625481 23.32098167 11.21589661 25.07887268 C11.22328354 26.32257126 11.23067047 27.56626984 11.23828125 28.84765625 C11.246353 30.12926132 11.25442474 31.41086639 11.26274109 32.73130798 C11.27776086 35.44904446 11.28759987 38.16675491 11.29516602 40.88452148 C11.3061785 44.34203782 11.3405196 47.79890131 11.38033772 51.25618839 C11.41301404 54.5783161 11.41730185 57.90038041 11.42578125 61.22265625 C11.44328934 62.45218521 11.46079742 63.68171417 11.47883606 64.94850159 C11.45789304 73.32970953 10.41964621 80.66374759 5.10546875 87.40234375 C-3.70184973 94.45178604 -12.24917391 96.73480219 -23.55859375 95.78515625 C-30.53087812 94.51636967 -35.74310867 91.15658505 -40.8125 86.3125 C-46.09471634 78.31371525 -46.45816876 69.72908744 -46.43359375 60.37890625 C-46.4388356 59.19836166 -46.44407745 58.01781708 -46.44947815 56.80149841 C-46.45586882 54.31811302 -46.45459995 51.83469724 -46.44604492 49.35131836 C-46.43753215 45.57675695 -46.46634564 41.80370938 -46.49804688 38.02929688 C-46.49965922 35.60416712 -46.49908073 33.17903471 -46.49609375 30.75390625 C-46.50732773 29.63899307 -46.51856171 28.5240799 -46.53013611 27.37538147 C-46.45512817 18.83562927 -44.97161919 10.52843096 -39.6875 3.5625 C-29.72392869 -5.93764939 -11.6265056 -7.74254194 0 0 Z M-32.25 11.5 C-34.68612842 14.98018345 -35.14106241 17.70453176 -35.31640625 21.84765625 C-35.35854248 22.83314453 -35.40067871 23.81863281 -35.4440918 24.83398438 C-35.4831665 25.89939453 -35.52224121 26.96480469 -35.5625 28.0625 C-35.6035083 29.16271484 -35.6445166 30.26292969 -35.68676758 31.39648438 C-35.96695204 39.5966655 -36.13489404 47.79524284 -36.1875 56 C-36.20047119 57.06613525 -36.21344238 58.13227051 -36.22680664 59.23071289 C-36.23612038 67.06853534 -36.08212122 75.60029179 -31 82 C-25.69030657 85.91240568 -20.47664238 86.43177616 -14 86 C-9.48380968 85.02951579 -5.98874404 83.9126868 -2.5625 80.75 C1.34233891 73.87748352 1.30747872 67.20130408 1.30078125 59.4765625 C1.30720894 57.82543961 1.30720894 57.82543961 1.31376648 56.14096069 C1.3194925 53.81956671 1.32002282 51.49815479 1.31567383 49.17675781 C1.31251659 45.64356565 1.33598633 42.11121366 1.36132812 38.578125 C1.3636017 36.31510522 1.36430434 34.0520832 1.36328125 31.7890625 C1.372491 30.74191071 1.38170074 29.69475891 1.39118958 28.61587524 C1.34467067 21.16405095 0.8474665 13.47327712 -4.6875 7.9375 C-12.83994141 2.87071383 -26.03273141 4.59192379 -32.25 11.5 Z " fill="#C41409" transform="translate(562,48)"/>
<path d="M0 0 C0.56976563 0.36222656 1.13953125 0.72445312 1.7265625 1.09765625 C7.44273349 5.25103172 9.85246437 11.25336285 11 18 C11.09760736 19.85335212 11.14788579 21.70955637 11.16113281 23.56542969 C11.17074036 24.65716492 11.1803479 25.74890015 11.19024658 26.87371826 C11.19449646 28.04460999 11.19874634 29.21550171 11.203125 30.421875 C11.20882507 31.63643372 11.21452515 32.85099243 11.22039795 34.10235596 C11.22983653 36.67109306 11.23637739 39.2398422 11.24023438 41.80859375 C11.24992956 45.7215712 11.28096062 49.63402097 11.3125 53.546875 C11.31903159 56.04687189 11.32428145 58.54687253 11.328125 61.046875 C11.3404718 62.2096698 11.3528186 63.3724646 11.36553955 64.57049561 C11.33896275 74.35022384 9.89829301 82.05897272 3 89.2734375 C-3.91363254 95.24184684 -12.11202617 96.08832769 -21 96 C-29.07189098 95.30777045 -35.08106787 91.85406697 -40.8125 86.25 C-46.16608821 78.29609751 -46.44702115 70.34612005 -46.3984375 60.96875 C-46.40130768 59.73765503 -46.40417786 58.50656006 -46.40713501 57.23815918 C-46.40916823 54.64623553 -46.40369059 52.05429628 -46.39111328 49.46240234 C-46.3750502 45.51234374 -46.39098852 41.56330831 -46.41015625 37.61328125 C-46.40817369 35.08593526 -46.40432975 32.5585899 -46.3984375 30.03125 C-46.40451019 28.85912964 -46.41058289 27.68700928 -46.4168396 26.47937012 C-46.33771919 17.18006754 -45.19238884 9.48642933 -38.6796875 2.50390625 C-28.89573569 -6.25614363 -10.92843096 -7.2776669 0 0 Z M-32 10 C-35.2317555 15.06308362 -36.11251392 19.99693975 -36.16113281 25.92285156 C-36.17074036 26.87444153 -36.1803479 27.82603149 -36.19024658 28.80645752 C-36.19449646 29.82423279 -36.19874634 30.84200806 -36.203125 31.890625 C-36.20882507 32.9498114 -36.21452515 34.0089978 -36.22039795 35.10028076 C-36.22983139 37.33946743 -36.23637534 39.57866788 -36.24023438 41.81787109 C-36.24992569 45.22388254 -36.28095961 48.62928665 -36.3125 52.03515625 C-36.31903218 54.21614227 -36.32428181 56.39713258 -36.328125 58.578125 C-36.3404718 59.58780334 -36.3528186 60.59748169 -36.36553955 61.63775635 C-36.34193618 69.22109294 -35.47561748 75.85529672 -30.6875 81.9375 C-25.57585357 85.86039144 -20.34174338 86.73660903 -14 86 C-9.52829611 85.05703773 -6.03356002 83.90105232 -2.5625 80.875 C1.30153243 73.76518033 1.30818224 65.85696498 1.30078125 57.9375 C1.30720894 56.39050415 1.30720894 56.39050415 1.31376648 54.81225586 C1.31947822 52.6440504 1.3200335 50.47582579 1.31567383 48.30761719 C1.31250905 45.00943085 1.3360301 41.7121386 1.36132812 38.4140625 C1.36360112 36.29687612 1.36430462 34.17968735 1.36328125 32.0625 C1.372491 31.08724365 1.38170074 30.1119873 1.39118958 29.10717773 C1.34066013 21.55251572 0.44200913 14.93041095 -4.5 9 C-11.55156285 3.35874972 -25.2872173 4.20259676 -32 10 Z " fill="#C91105" transform="translate(491,48)"/>
<path d="M0 0 C3 0.25 3 0.25 5 2.25 C5.17553419 5.33524939 5.23122797 8.32964202 5.1953125 11.4140625 C5.1924826 12.32127045 5.18965271 13.22847839 5.18673706 14.16317749 C5.17552153 17.06725123 5.15041463 19.97101912 5.125 22.875 C5.11497197 24.84114139 5.10584581 26.8072876 5.09765625 28.7734375 C5.07727731 33.59917162 5.03813153 38.42424254 5 43.25 C17.21 43.25 29.42 43.25 42 43.25 C41.97679687 40.31351563 41.95359375 37.37703125 41.9296875 34.3515625 C41.91410111 31.51530388 41.9019506 28.67904998 41.89013672 25.84277344 C41.88006373 23.86781691 41.86640479 21.89287534 41.84912109 19.91796875 C41.82492961 17.08329582 41.81353009 14.24881962 41.8046875 11.4140625 C41.79436493 10.52756012 41.78404236 9.64105774 41.77340698 8.72769165 C41.7730093 6.56714048 41.87727466 4.40706282 42 2.25 C44 0.25 44 0.25 47 0.0625 C50 0.25 50 0.25 52 1.25 C52.24627855 13.58423646 52.46558606 25.91862667 52.65021229 38.25394917 C52.73678986 43.98140446 52.83274669 49.70838581 52.94995117 55.43530273 C53.06266221 60.95936751 53.15098043 66.48332757 53.22220421 72.00807762 C53.25373648 74.11860224 53.29414331 76.22901307 53.34345436 78.33919716 C53.41089341 81.28923205 53.44710943 84.238091 53.47583008 87.1887207 C53.5031572 88.06625504 53.53048431 88.94378937 53.55863953 89.84791565 C53.5629453 92.09316742 53.5274952 94.06788478 53 96.25 C50.64213562 98.36320496 50.64213562 98.36320496 48 99.25 C45.56971928 98.58719617 43.7989028 98.0489028 42 96.25 C41.9072167 94.86839885 41.88252957 93.48211962 41.88647461 92.09741211 C41.88655014 91.21657455 41.88662567 90.335737 41.88670349 89.4282074 C41.89444542 87.99227989 41.89444542 87.99227989 41.90234375 86.52734375 C41.9037587 85.55213272 41.90517365 84.57692169 41.90663147 83.57215881 C41.91224867 80.44390857 41.92480407 77.31572877 41.9375 74.1875 C41.94251278 72.07226666 41.94707607 69.95703219 41.95117188 67.84179688 C41.96137469 62.64448199 41.98094669 57.44732025 42 52.25 C29.79 52.25 17.58 52.25 5 52.25 C5 67.1 5 81.95 5 97.25 C0 99.25 0 99.25 -2.8125 98.375 C-3.8953125 97.818125 -3.8953125 97.818125 -5 97.25 C-5.04626496 84.89809568 -5.08183941 72.54621186 -5.10362434 60.19423866 C-5.11407805 54.459214 -5.12826612 48.72424845 -5.15087891 42.98925781 C-5.1725508 37.45851431 -5.18455666 31.92782781 -5.18975449 26.39704514 C-5.19346043 24.28304522 -5.20069682 22.16904855 -5.21146011 20.05507278 C-5.22589992 17.10256365 -5.2279811 14.15029245 -5.22705078 11.19775391 C-5.23424133 10.3166243 -5.24143188 9.43549469 -5.24884033 8.52766418 C-5.22110151 0.43509179 -5.22110151 0.43509179 0 0 Z " fill="#C0150A" transform="translate(376,43.75)"/>
<path d="M0 0 C3.5625 0.3125 3.5625 0.3125 5.17625427 1.52119446 C6.87110845 3.71128358 7.51527786 5.63071287 8.30493164 8.28588867 C8.61309814 9.30457535 8.92126465 10.32326202 9.23876953 11.37281799 C9.72579346 13.03485512 9.72579346 13.03485512 10.22265625 14.73046875 C10.56917236 15.88397324 10.91568848 17.03747772 11.27270508 18.22593689 C12.20634807 21.33903188 13.13176414 24.4544242 14.05342484 27.57108307 C15.00436829 30.7802689 15.96493235 33.98656632 16.92553711 37.19287109 C17.11543244 37.82672981 17.30532778 38.46058853 17.50097752 39.11365509 C17.69050464 39.74623985 17.88003176 40.37882462 18.07530212 41.03057861 C18.83667598 43.5722101 19.59698348 46.11416127 20.35621643 48.65643311 C22.48339885 55.76732755 24.65080627 62.86232783 26.90625 69.93359375 C27.1464537 70.68833481 27.38665741 71.44307587 27.63414001 72.22068787 C28.5022673 74.94250034 29.37217625 77.66355645 30.25930786 80.37924194 C30.8374261 82.14899342 31.40534345 83.92206769 31.97265625 85.6953125 C32.28340088 86.64809082 32.59414551 87.60086914 32.91430664 88.58251953 C33.63381345 91.61284913 33.79202078 94.20863498 33.5625 97.3125 C31.875 99.25 31.875 99.25 29.5625 100.3125 C26.91796875 99.87890625 26.91796875 99.87890625 24.5625 99.3125 C23.55259308 96.39916921 22.55634048 93.48134681 21.5625 90.5625 C21.27632813 89.7375 20.99015625 88.9125 20.6953125 88.0625 C20.42460937 87.26328125 20.15390625 86.4640625 19.875 85.640625 C19.62363281 84.9074707 19.37226563 84.17431641 19.11328125 83.41894531 C18.5625 81.3125 18.5625 81.3125 18.5625 77.3125 C6.3525 77.3125 -5.8575 77.3125 -18.4375 77.3125 C-18.7675 79.6225 -19.0975 81.9325 -19.4375 84.3125 C-20.01000977 86.48413086 -20.01000977 86.48413086 -20.62890625 88.27734375 C-20.85126953 88.93154297 -21.07363281 89.58574219 -21.30273438 90.25976562 C-21.53283203 90.91654297 -21.76292969 91.57332031 -22 92.25 C-22.23396484 92.93384766 -22.46792969 93.61769531 -22.70898438 94.32226562 C-23.27961829 95.98758501 -23.85777098 97.65032493 -24.4375 99.3125 C-27.1875 100.0625 -27.1875 100.0625 -30.4375 100.3125 C-32.640625 98.328125 -32.640625 98.328125 -34.4375 96.3125 C-32.16041744 87.69361141 -29.60566708 79.17064944 -26.98046875 70.65234375 C-26.55063421 69.25389864 -26.12089276 67.85542492 -25.6912384 66.45692444 C-24.7939355 63.53773771 -23.89534644 60.61895087 -22.99584961 57.70043945 C-22.08555876 54.74655091 -21.17702276 51.7921328 -20.27026367 48.8371582 C-11.6926839 20.8849606 -11.6926839 20.8849606 -7.92578125 9.37890625 C-7.58029488 8.30563332 -7.58029488 8.30563332 -7.22782898 7.2106781 C-4.97661309 0.45241937 -4.97661309 0.45241937 0 0 Z M-0.4375 18.3125 C-5.65143397 34.92429562 -10.73359019 51.54728297 -15.4375 68.3125 C-5.5375 68.3125 4.3625 68.3125 14.5625 68.3125 C13.71443615 62.29847486 13.71443615 62.29847486 12.25561523 56.57055664 C11.99542099 55.71019302 11.73522675 54.84982941 11.46714783 53.96339417 C11.18794998 53.05895065 10.90875214 52.15450714 10.62109375 51.22265625 C10.33396011 50.27813095 10.04682648 49.33360565 9.75099182 48.36045837 C8.83881358 45.36381086 7.91952163 42.36940136 7 39.375 C6.37778313 37.33543042 5.75603331 35.29571829 5.13476562 33.25585938 C3.61607949 28.27307683 2.09155733 23.29210911 0.5625 18.3125 C0.2325 18.3125 -0.0975 18.3125 -0.4375 18.3125 Z " fill="#C21409" transform="translate(325.4375,42.6875)"/>
<path d="M0 0 C2.23913574 -0.3742218 2.23913574 -0.3742218 5.06054688 -0.37231445 C6.11504028 -0.37854324 7.16953369 -0.38477203 8.25598145 -0.39118958 C9.97005188 -0.37737495 9.97005188 -0.37737495 11.71875 -0.36328125 C13.47197571 -0.36402901 13.47197571 -0.36402901 15.26062012 -0.36479187 C17.73545021 -0.36244805 20.21028253 -0.35270153 22.68505859 -0.33618164 C26.48426514 -0.31259768 30.28277018 -0.31561753 34.08203125 -0.32226562 C36.48177504 -0.31668897 38.88151586 -0.30957917 41.28125 -0.30078125 C42.42396362 -0.30169266 43.56667725 -0.30260406 44.74401855 -0.30354309 C45.79851196 -0.29401108 46.85300537 -0.28447906 47.93945312 -0.2746582 C49.33605164 -0.26774712 49.33605164 -0.26774712 50.76086426 -0.26069641 C53 0 53 0 55 2 C58.33807167 14.45805731 53.48612238 23.01307439 47.6875 33.6875 C46.8432531 35.29826806 46.00196072 36.91058798 45.16357422 38.52441406 C43.15327449 42.37809915 41.10999535 46.21281681 39.05108643 50.04071045 C37.68219432 52.59240927 36.33693451 55.15612418 34.99609375 57.72265625 C33.83869674 59.93704626 32.67883986 62.14935557 31.50024414 64.35253906 C29.20895244 68.63783618 27.0179546 72.96260735 24.875 77.32421875 C24.33536621 78.42024414 23.79573242 79.51626953 23.23974609 80.64550781 C22.18860407 82.78847712 21.14429044 84.93481376 20.10791016 87.08496094 C19.63144043 88.05594727 19.1549707 89.02693359 18.6640625 90.02734375 C18.24592285 90.89093506 17.8277832 91.75452637 17.39697266 92.64428711 C15.86028142 95.23560724 14.31501177 97.07249501 12 99 C8.875 99 8.875 99 6 98 C4.61181641 96.38720703 4.61181641 96.38720703 4 94 C4.98278361 91.41055882 6.01290608 89.21290323 7.3359375 86.8046875 C7.70528412 86.1015744 8.07463074 85.3984613 8.45516968 84.67404175 C9.23592572 83.18803755 10.0227914 81.70522956 10.81530762 80.22546387 C12.30618411 77.42482818 13.742237 74.59831805 15.17582703 71.76805115 C16.60650603 68.94581498 18.0527809 66.13168554 19.49880981 63.31729126 C20.26288689 61.82990528 21.02610329 60.34207692 21.7885437 58.85385132 C25.85017436 50.92848555 29.94289216 43.02783713 34.24609375 35.23046875 C34.73795166 34.33557739 34.73795166 34.33557739 35.23974609 33.42260742 C36.75883551 30.66177749 38.29118271 27.91010097 39.84814453 25.17041016 C42.91221501 19.63997937 44.75142613 15.34993253 45 9 C44.13217896 9.04543945 44.13217896 9.04543945 43.24682617 9.09179688 C14.52257603 10.57787886 14.52257603 10.57787886 9 9 C9.03480469 10.12019531 9.06960938 11.24039063 9.10546875 12.39453125 C9.13360839 13.86717251 9.16090837 15.33982998 9.1875 16.8125 C9.22520508 17.91948242 9.22520508 17.91948242 9.26367188 19.04882812 C9.33773206 24.50459477 9.33773206 24.50459477 7.64453125 26.98828125 C5.27457992 28.44627981 3.72703052 28.40905458 1 28 C-1.23405471 26.34390803 -1.92576583 25.46107939 -2.37231445 22.6875 C-2.3693335 21.800625 -2.36635254 20.91375 -2.36328125 20 C-2.36231445 18.5459375 -2.36231445 18.5459375 -2.36132812 17.0625 C-2.34521484 16.051875 -2.32910156 15.04125 -2.3125 14 C-2.31572266 12.989375 -2.31894531 11.97875 -2.32226562 10.9375 C-2.26714286 3.40071429 -2.26714286 3.40071429 0 0 Z " fill="#C41309" transform="translate(585,44)"/>
<path d="M0 0 C1.06845657 -0.00708481 2.13691315 -0.01416962 3.23774719 -0.02146912 C4.41495834 -0.0189917 5.59216949 -0.01651428 6.80505371 -0.01396179 C8.04083664 -0.01907272 9.27661957 -0.02418365 10.54985046 -0.02944946 C13.94446648 -0.0409918 17.33883883 -0.04341532 20.73345757 -0.04088616 C23.56416745 -0.03981838 26.39485467 -0.04469478 29.22555971 -0.04949158 C35.90132618 -0.06059561 42.57703638 -0.06101896 49.25280762 -0.05497742 C56.14772502 -0.04893369 63.04243857 -0.06125658 69.93732119 -0.08254749 C75.85073288 -0.10013858 81.76407955 -0.10616887 87.67751646 -0.10290974 C91.21217609 -0.10109297 94.74669027 -0.1037721 98.28132629 -0.11762428 C102.2203071 -0.13248293 106.1590263 -0.12325435 110.09802246 -0.11161804 C111.27523361 -0.11926178 112.45244476 -0.12690552 113.66532898 -0.13478088 C115.26801384 -0.12425941 115.26801384 -0.12425941 116.90307617 -0.11352539 C118.30122684 -0.113777 118.30122684 -0.113777 119.72762299 -0.1140337 C120.46151497 0.00962724 121.19540695 0.13328817 121.95153809 0.26069641 C124.00374045 3.33899995 124.20259212 3.96915695 124.2122345 7.44235229 C124.21931931 8.29341553 124.22640411 9.14447876 124.23370361 10.02133179 C124.2312262 10.95182846 124.22874878 11.88232513 124.22619629 12.84101868 C124.23130722 13.8233548 124.23641815 14.80569092 124.24168396 15.8177948 C124.25560595 19.07095905 124.25462154 22.32391213 124.25231934 25.57710266 C124.25620417 27.83246948 124.26053839 30.08783556 124.26530457 32.34320068 C124.27277191 37.0718269 124.27247127 41.80037846 124.26721191 46.52900696 C124.26140957 52.6013148 124.27836443 58.6733184 124.30155659 64.7455759 C124.31625519 69.40286051 124.31717104 74.06007112 124.31404686 78.7173748 C124.31456179 80.95697064 124.31983153 83.19657043 124.32985878 85.43614388 C124.34213402 88.56088961 124.33548578 91.68503328 124.32385254 94.80976868 C124.33149628 95.74228958 124.33914001 96.67481049 124.34701538 97.6355896 C124.34000107 98.48383301 124.33298676 99.33207642 124.32575989 100.20602417 C124.32592763 100.94509286 124.32609537 101.68416155 124.3262682 102.44562626 C123.95153809 104.26069641 123.95153809 104.26069641 120.95153809 106.26069641 C118.63860321 106.51237869 118.63860321 106.51237869 115.86547852 106.5146637 C114.81392075 106.52030334 113.76236298 106.52594299 112.67893982 106.53175354 C110.94892479 106.52568085 110.94892479 106.52568085 109.18395996 106.51948547 C107.36173668 106.52474243 107.36173668 106.52474243 105.50270081 106.53010559 C102.17005146 106.53740709 98.83764996 106.53568539 95.50501442 106.52934742 C92.01904591 106.52428749 88.53308806 106.52897885 85.04711914 106.53211975 C79.19281104 106.53575942 73.33855338 106.5309603 67.48425293 106.5214386 C60.71377314 106.51055402 53.94341379 106.5140796 47.17293692 106.52509141 C41.36225143 106.53416428 35.55160224 106.53544957 29.74091196 106.53021407 C26.26942883 106.52709436 22.79800233 106.52668503 19.32652283 106.53328705 C15.45733957 106.54013128 11.58829148 106.53064771 7.71911621 106.51948547 C6.56577286 106.52353394 5.4124295 106.5275824 4.22413635 106.53175354 C3.17257858 106.52611389 2.12102081 106.52047424 1.03759766 106.5146637 C0.12246651 106.51390965 -0.79266464 106.51315559 -1.73552704 106.51237869 C-4.04846191 106.26069641 -4.04846191 106.26069641 -7.04846191 104.26069641 C-7.42319202 102.42721558 -7.42319202 102.42721558 -7.42268372 100.16133118 C-7.42969803 99.30322845 -7.43671234 98.44512573 -7.44393921 97.5610199 C-7.43629547 96.61757721 -7.42865173 95.67413452 -7.42077637 94.70210266 C-7.42442703 93.710159 -7.4280777 92.71821533 -7.43183899 91.69621277 C-7.43996982 88.40503518 -7.42631318 85.11434603 -7.41174316 81.82319641 C-7.41122486 79.54398092 -7.4117414 77.26476498 -7.41325378 74.98554993 C-7.41316395 70.20382533 -7.402711 65.42226894 -7.38464355 60.64057922 C-7.36195609 54.49990779 -7.36141109 48.35948232 -7.3681612 42.21878052 C-7.37149681 37.51087748 -7.36487879 32.8030309 -7.35503197 28.09513855 C-7.35117263 25.83043208 -7.35003477 23.56571934 -7.35161781 21.30101013 C-7.35198715 18.14031428 -7.33940517 14.97993816 -7.32312012 11.81929016 C-7.32559753 10.87584747 -7.32807495 9.93240479 -7.33062744 8.96037292 C-7.32354263 8.1022702 -7.31645782 7.24416748 -7.30915833 6.36006165 C-7.30710546 5.61231979 -7.30505259 4.86457794 -7.30293751 4.09417725 C-6.69623818 -0.27705371 -3.65135195 0.00804178 0 0 Z M-5.04846191 2.26069641 C-5.04846191 35.92069641 -5.04846191 69.58069641 -5.04846191 104.26069641 C37.19153809 104.26069641 79.43153809 104.26069641 122.95153809 104.26069641 C122.99278809 87.98757141 123.03403809 71.71444641 123.07653809 54.94819641 C123.09474609 49.80701233 123.1129541 44.66582825 123.13171387 39.36885071 C123.1384021 34.7664732 123.1384021 34.7664732 123.14242554 30.16409302 C123.14549978 28.11171604 123.15254022 26.05934271 123.16268921 24.00698853 C123.17728277 20.90098275 123.17935162 17.79519802 123.17858887 14.68916321 C123.18938319 13.31415287 123.18938319 13.31415287 123.20039558 11.91136456 C123.19626309 10.65828109 123.19626309 10.65828109 123.19204712 9.37988281 C123.19389071 8.65258815 123.19573429 7.92529348 123.19763374 7.17595959 C123.05347558 4.93245407 123.05347558 4.93245407 120.95153809 2.26069641 C117.89872305 1.95340111 115.04761694 1.84105573 111.99133301 1.85664368 C111.06272964 1.84978043 110.13412628 1.84291718 109.17738342 1.83584595 C106.09543737 1.81748571 103.01399606 1.82142945 99.93200684 1.82710266 C97.79449802 1.82254439 95.65699067 1.81723989 93.51948547 1.81121826 C89.03282735 1.80226836 84.54634702 1.80473059 80.05969238 1.81465149 C74.30926546 1.82612736 68.55945384 1.80596012 62.80910778 1.77673435 C58.39187211 1.75838575 53.97478413 1.75866245 49.55751991 1.76437187 C47.43762666 1.76452534 45.31772355 1.75846029 43.19786644 1.7460804 C40.23149492 1.73120257 37.26626264 1.74182526 34.29992676 1.75898743 C33.42337433 1.74931946 32.5468219 1.73965149 31.64370728 1.72969055 C30.42609459 1.74444176 30.42609459 1.74444176 29.18388367 1.75949097 C28.48315326 1.75970025 27.78242285 1.75990953 27.06045818 1.76012516 C24.19529023 2.28148293 24.19529023 2.28148293 19.95153809 6.26069641 C51.63153809 6.26069641 83.31153809 6.26069641 115.95153809 6.26069641 C115.95153809 6.92069641 115.95153809 7.58069641 115.95153809 8.26069641 C78.00153809 8.26069641 40.05153809 8.26069641 0.95153809 8.26069641 C0.95153809 12.22069641 0.95153809 16.18069641 0.95153809 20.26069641 C38.57153809 20.26069641 76.19153809 20.26069641 114.95153809 20.26069641 C114.95153809 20.92069641 114.95153809 21.58069641 114.95153809 22.26069641 C77.00153809 22.26069641 39.05153809 22.26069641 -0.04846191 22.26069641 C-0.37846191 17.64069641 -0.70846191 13.02069641 -1.04846191 8.26069641 C-2.03846191 8.26069641 -3.02846191 8.26069641 -4.04846191 8.26069641 C-3.71846191 6.28069641 -3.38846191 4.30069641 -3.04846191 2.26069641 C-3.70846191 2.26069641 -4.36846191 2.26069641 -5.04846191 2.26069641 Z " fill="#A32219" transform="translate(62.0484619140625,36.73930358886719)"/>
<path d="M0 0 C1.33332095 2.6666419 0.67102033 4.16680303 0 7 C-0.66 7 -1.32 7 -2 7 C-1.67 26.47 -1.34 45.94 -1 66 C3.03744569 61.40527746 3.03744569 61.40527746 3.51416016 56.33666992 C3.5274234 55.44191452 3.54068665 54.54715912 3.55435181 53.62528992 C3.5467836 52.19235344 3.5467836 52.19235344 3.5390625 50.73046875 C3.55085541 49.73549881 3.56264832 48.74052887 3.57479858 47.71540833 C3.61004448 44.53927987 3.61922271 41.36380791 3.625 38.1875 C3.64139478 35.02210221 3.66357755 31.85699557 3.69662476 28.69172668 C3.71609624 26.72507694 3.72560703 24.75829473 3.72354126 22.79154968 C3.7666566 17.18933251 4.41385721 12.37893879 6 7 C6.66 7 7.32 7 8 7 C7.83918945 7.92635254 7.67837891 8.85270508 7.51269531 9.80712891 C6.79172746 14.88745578 6.81848596 19.96296099 6.796875 25.0859375 C6.79117493 26.14229401 6.78547485 27.19865051 6.77960205 28.28701782 C6.77018787 30.5142518 6.76363238 32.74149948 6.75976562 34.96875 C6.75005155 38.35701975 6.71899001 41.74468459 6.6875 45.1328125 C6.68096962 47.30468393 6.67571929 49.47655966 6.671875 51.6484375 C6.6595282 52.65184174 6.6471814 53.65524597 6.63446045 54.6890564 C6.65692779 61.85907752 7.43302456 68.54786062 11.8125 74.4375 C16.76441538 77.97458242 22.03906229 78.67074072 28 78 C31.96703948 77.28109663 35.61770762 76.50381259 38.421875 73.453125 C41.66388178 68.14375158 42.1280653 62.53129342 42.11352539 56.45361328 C42.11344986 55.39296661 42.11337433 54.33231995 42.11329651 53.23953247 C42.10813522 52.11118988 42.10297394 50.98284729 42.09765625 49.8203125 C42.09553383 48.06846146 42.09553383 48.06846146 42.09336853 46.28121948 C42.08778498 42.56245326 42.07523544 38.84374793 42.0625 35.125 C42.05748288 32.5989592 42.05292034 30.07291746 42.04882812 27.546875 C42.03782093 21.36456267 42.02109913 15.18228569 42 9 C44.15698344 12.23547516 44.25193348 13.1157916 44.25878906 16.84765625 C44.26509338 17.8329834 44.27139771 18.81831055 44.27789307 19.83349609 C44.2738446 20.89906738 44.26979614 21.96463867 44.265625 23.0625 C44.26849518 24.71499756 44.26849518 24.71499756 44.27142334 26.40087891 C44.27278585 28.73779528 44.26908483 31.07471921 44.26074219 33.41162109 C44.25012518 36.95818538 44.26059306 40.50423363 44.2734375 44.05078125 C44.27211432 46.32552194 44.26954867 48.60026231 44.265625 50.875 C44.26967346 51.92437744 44.27372192 52.97375488 44.27789307 54.05493164 C44.2289112 61.90642676 43.49419044 69.51742867 41 77 C41.99 77.495 41.99 77.495 43 78 C42.67 78.66 42.34 79.32 42 80 C42.99 79.67 43.98 79.34 45 79 C45 79.99 45 80.98 45 82 C39.22814716 87.43328047 31.70742986 88.8941451 24.046875 89.06640625 C15.27362407 88.69523025 7.70823108 86.24303284 1.5625 79.75 C-4.23634364 71.88015066 -4.44756634 63.45135006 -4.3984375 53.96875 C-4.40130768 52.73765503 -4.40417786 51.50656006 -4.40713501 50.23815918 C-4.40916823 47.64623553 -4.40369059 45.05429628 -4.39111328 42.46240234 C-4.3750502 38.51234374 -4.39098852 34.56330831 -4.41015625 30.61328125 C-4.40817369 28.08593526 -4.40432975 25.5585899 -4.3984375 23.03125 C-4.40451019 21.85912964 -4.41058289 20.68700928 -4.4168396 19.47937012 C-4.28758471 4.28758471 -4.28758471 4.28758471 0 0 Z " fill="#B11D14" transform="translate(449,55)"/>
<path d="M0 0 C0.56976562 0.36222656 1.13953125 0.72445312 1.7265625 1.09765625 C6.87245069 4.83666368 9.05173817 10.1552145 11 16 C11.09849113 17.89576599 11.13823437 19.79480552 11.14526367 21.69311523 C11.15164352 22.86120224 11.15802338 24.02928925 11.16459656 25.23277283 C11.16570938 26.49529373 11.1668222 27.75781464 11.16796875 29.05859375 C11.17296135 31.00234642 11.17296135 31.00234642 11.17805481 32.98536682 C11.18404062 35.72829013 11.18589525 38.47118195 11.18530273 41.21411133 C11.1852011 44.72581647 11.19885701 48.23731948 11.21607494 51.74897671 C11.229878 55.10218552 11.22928388 58.45535688 11.23046875 61.80859375 C11.23765427 63.06909042 11.24483978 64.3295871 11.25224304 65.62828064 C11.24916641 66.79951981 11.24608978 67.97075897 11.24291992 69.17749023 C11.24434494 70.20768784 11.24576996 71.23788544 11.24723816 72.29930115 C10.99736727 75.02875851 10.40170016 76.67133301 9 79 C9.00666183 78.23658295 9.01332367 77.47316589 9.02018738 76.68661499 C9.08040162 69.47759268 9.12602656 62.26869302 9.15543652 55.05948448 C9.171065 51.35351166 9.19225119 47.64774736 9.22631836 43.94189453 C9.25901319 40.36275825 9.27687419 36.78382202 9.28463173 33.20454788 C9.29015716 31.84184243 9.30094704 30.47914741 9.31719017 29.11652756 C9.33909636 27.20198069 9.34022653 25.28723075 9.34057617 23.37255859 C9.34723801 22.28445892 9.35389984 21.19635925 9.36076355 20.07528687 C8.93661082 16.45964636 7.93978035 14.07094404 6 11 C2.91038542 10.02525184 2.91038542 10.02525184 0 10 C0.495 14.95 0.495 14.95 1 20 C0.67 20 0.34 20 0 20 C-0.14695312 19.39671875 -0.29390625 18.7934375 -0.4453125 18.171875 C-0.78175781 16.97304687 -0.78175781 16.97304687 -1.125 15.75 C-1.33382812 14.96109375 -1.54265625 14.1721875 -1.7578125 13.359375 C-3.5656797 9.92556434 -5.56253119 8.75639986 -9 7 C-11.85276437 6.63806086 -14.234226 6.48063586 -17.0625 6.5625 C-18.10374023 6.55186523 -18.10374023 6.55186523 -19.16601562 6.54101562 C-23.61317839 6.59591887 -26.45125505 7.31712258 -30 10 C-33.08248081 13.52283521 -34.0868564 16.60667896 -34.31640625 21.23046875 C-34.35830078 22.03291016 -34.40019531 22.83535156 -34.44335938 23.66210938 C-34.48267578 24.49548828 -34.52199219 25.32886719 -34.5625 26.1875 C-34.60568359 27.03248047 -34.64886719 27.87746094 -34.69335938 28.74804688 C-34.79931518 30.83184433 -34.9001502 32.91590103 -35 35 C-37.26954631 31.59568053 -37.36549949 29.83475798 -37.625 25.8125 C-37.69976563 24.72582031 -37.77453125 23.63914062 -37.8515625 22.51953125 C-37.90054688 21.68808594 -37.94953125 20.85664062 -38 20 C-39.65 19.67 -41.3 19.34 -43 19 C-43.88716709 22.06805814 -44.14894958 24.8548618 -44.20532227 28.04394531 C-44.22526749 29.04468079 -44.24521271 30.04541626 -44.26576233 31.07647705 C-44.28247482 32.14952087 -44.29918732 33.2225647 -44.31640625 34.328125 C-44.33718735 35.43226746 -44.35796844 36.53640991 -44.37937927 37.67401123 C-44.44473646 41.19927783 -44.50369564 44.72461859 -44.5625 48.25 C-44.60569836 50.64063265 -44.64931307 53.03125782 -44.69335938 55.421875 C-44.80040372 61.28117173 -44.90219585 67.14054214 -45 73 C-45.33 73 -45.66 73 -46 73 C-46.10199058 65.36868799 -46.17171246 57.73755382 -46.21972656 50.10571289 C-46.23975721 47.51319815 -46.26698967 44.92072812 -46.30175781 42.32836914 C-46.35065141 38.58728967 -46.37305539 34.8468111 -46.390625 31.10546875 C-46.41127014 29.95918503 -46.43191528 28.81290131 -46.45318604 27.63188171 C-46.45556644 18.96263813 -45.0511773 10.64193594 -39.6875 3.5625 C-29.72392869 -5.93764939 -11.6265056 -7.74254194 0 0 Z " fill="#BA180E" transform="translate(562,48)"/>
<path d="M0 0 C1.16781006 0.00523682 2.33562012 0.01047363 3.53881836 0.01586914 C4.79887695 0.0190918 6.05893555 0.02231445 7.35717773 0.02563477 C8.6976732 0.03399136 10.03816799 0.04245632 11.37866211 0.05102539 C12.72306153 0.05603879 14.06746271 0.06060197 15.41186523 0.06469727 C18.71334151 0.07653051 22.01473014 0.09301568 25.31616211 0.11352539 C24.32616211 1.10352539 23.33616211 2.09352539 22.31616211 3.11352539 C68.84616211 3.60852539 68.84616211 3.60852539 116.31616211 4.11352539 C116.31616211 4.77352539 116.31616211 5.43352539 116.31616211 6.11352539 C102.35567084 6.2676965 88.39512546 6.41565039 74.43449306 6.55648899 C67.95190012 6.6220679 61.46934044 6.68962603 54.98681641 6.76171875 C48.72990593 6.83122939 42.47296154 6.89552615 36.21595955 6.95622063 C33.829764 6.98028124 31.44358657 7.00621496 29.05743217 7.03405952 C25.71328436 7.07276201 22.36913389 7.10478197 19.02490234 7.13525391 C18.04018951 7.14819992 17.05547668 7.16114594 16.04092407 7.17448425 C11.011057 7.21303998 6.27251255 6.98661017 1.31616211 6.11352539 C1.31616211 10.07352539 1.31616211 14.03352539 1.31616211 18.11352539 C38.93616211 18.11352539 76.55616211 18.11352539 115.31616211 18.11352539 C115.31616211 18.77352539 115.31616211 19.43352539 115.31616211 20.11352539 C77.36616211 20.11352539 39.41616211 20.11352539 0.31616211 20.11352539 C-1.06609805 17.34900507 -0.77909176 15.06738909 -0.74633789 11.98852539 C-0.73731445 10.89282227 -0.72829102 9.79711914 -0.71899414 8.66821289 C-0.70739258 7.82516602 -0.69579102 6.98211914 -0.68383789 6.11352539 C-1.67383789 6.11352539 -2.66383789 6.11352539 -3.68383789 6.11352539 C-3.72655889 4.44740634 -3.72447621 2.77969654 -3.68383789 1.11352539 C-2.68383789 0.11352539 -2.68383789 0.11352539 0 0 Z " fill="#B21D12" transform="translate(61.683837890625,38.886474609375)"/>
<path d="M0 0 C0.9375 2.5 0.9375 2.5 1 6 C-0.96772255 9.02357368 -3.44642695 11.46653383 -6 14 C-6.57234375 14.6084375 -7.1446875 15.216875 -7.734375 15.84375 C-9.10383241 17.28100233 -10.54644651 18.64785722 -12 20 C-12.66 20 -13.32 20 -14 20 C-9.7485607 24.99544118 -5.35459124 29.71464579 -0.6015625 34.23828125 C1 36 1 36 2 39 C0.68 40.32 -0.64 41.64 -2 43 C-7.42444993 39.94111749 -11.46729159 35.97393896 -15.875 31.625 C-16.67164062 30.86960937 -17.46828125 30.11421875 -18.2890625 29.3359375 C-19.03671875 28.59859375 -19.784375 27.86125 -20.5546875 27.1015625 C-21.24030762 26.43463379 -21.92592773 25.76770508 -22.63232422 25.08056641 C-24 23 -24 23 -23.95654297 20.52026367 C-22.08815503 15.59750494 -17.93560668 12.3243097 -14.25 8.6875 C-13.43789062 7.85154297 -12.62578125 7.01558594 -11.7890625 6.15429688 C-10.99757813 5.36474609 -10.20609375 4.57519531 -9.390625 3.76171875 C-8.3082959 2.678302 -8.3082959 2.678302 -7.20410156 1.57299805 C-4.58076676 -0.2991936 -3.15363791 -0.33314538 0 0 Z " fill="#BF150C" transform="translate(98,79)"/>
<path d="M0 0 C4.22644966 0.25967963 6.23796762 1.73387483 9.171875 4.67578125 C9.91824219 5.42150391 10.66460937 6.16722656 11.43359375 6.93554688 C12.19800781 7.71994141 12.96242187 8.50433594 13.75 9.3125 C14.52988281 10.08529297 15.30976563 10.85808594 16.11328125 11.65429688 C22.56895303 18.18294582 22.56895303 18.18294582 23 22 C21.98828125 23.71875 21.98828125 23.71875 20.3125 25.5 C19.67441406 26.18191406 19.03632813 26.86382812 18.37890625 27.56640625 C17.59386719 28.36949219 16.80882812 29.17257813 16 30 C15.51644043 30.50257324 15.03288086 31.00514648 14.53466797 31.52294922 C12.94821903 33.16959933 11.35157753 34.80556656 9.75 36.4375 C9.23091064 36.96988281 8.71182129 37.50226563 8.17700195 38.05078125 C5.80132328 40.43069877 4.23575717 41.92141428 1 43 C-0.32 41.68 -1.64 40.36 -3 39 C-0.59509597 34.45177799 2.5367133 31.22648405 6.1875 27.6875 C6.74630859 27.13771484 7.30511719 26.58792969 7.88085938 26.02148438 C9.24937412 24.67636304 10.62406833 23.33753357 12 22 C10.20029118 17.15901109 6.02751519 14.33820189 2.16796875 11.15429688 C-1.88499739 7.63616525 -1.88499739 7.63616525 -2.4921875 4.27734375 C-2 2 -2 2 0 0 Z " fill="#B8170E" transform="translate(144,79)"/>
<path d="M0 0 C1.67542976 0.28604898 3.34385343 0.61781233 5 1 C6.07958449 4.28539517 6.12884012 5.69248416 4.77172852 8.93164062 C4.14709717 9.99576172 3.52246582 11.05988281 2.87890625 12.15625 C2.54132797 12.73983276 2.20374969 13.32341553 1.85594177 13.92468262 C0.7715389 15.79133912 -0.33262034 17.64540645 -1.4375 19.5 C-2.14647803 20.71539091 -2.85417251 21.93153152 -3.56054688 23.1484375 C-5.32300871 26.17522667 -7.11874783 29.18082084 -8.92254639 32.18310547 C-10.01953285 34.03293797 -11.08405376 35.89884435 -12.14501953 37.76953125 C-12.83720369 38.96114751 -13.52973542 40.15256196 -14.22265625 41.34375 C-14.82988525 42.40787109 -15.43711426 43.47199219 -16.06274414 44.56835938 C-18 47 -18 47 -20.61108398 47.97851562 C-21.39942627 47.98560547 -22.18776855 47.99269531 -23 48 C-23.66 47.34 -24.32 46.68 -25 46 C-24.66352448 41.81918972 -22.9278394 38.68061753 -20.90234375 35.0625 C-20.26490234 33.91910156 -19.62746094 32.77570313 -18.97070312 31.59765625 C-18.63562744 31.00484863 -18.30055176 30.41204102 -17.95532227 29.80126953 C-16.95833259 28.03686803 -15.97143306 26.2671524 -14.98632812 24.49609375 C-2.94167776 2.94167776 -2.94167776 2.94167776 0 0 Z " fill="#B8140B" transform="translate(130,76)"/>
<path d="M0 0 C3.625 0.25 3.625 0.25 5.25 1.4765625 C9.17504823 6.53898266 9.84545891 13.80064302 10.375 20.01171875 C10.7283475 23.17528309 11.46449772 26.21671333 12.22265625 29.3046875 C12.625 31.25 12.625 31.25 12.625 34.25 C7.98097363 33.8118843 7.98097363 33.8118843 5.625 32.25 C4.43473055 29.51500585 3.81707924 26.89780399 3.23046875 23.9765625 C2.65960441 21.40583147 1.99851275 19.48642596 0.625 17.25 C-0.035 16.92 -0.695 16.59 -1.375 16.25 C-1.375 17.24 -1.375 18.23 -1.375 19.25 C-3.685 19.58 -5.995 19.91 -8.375 20.25 C-7.52770121 0.5576075 -7.52770121 0.5576075 0 0 Z " fill="#BF160C" transform="translate(325.375,42.75)"/>
<path d="M0 0 C0.33 0 0.66 0 1 0 C1 1.98 1 3.96 1 6 C2.15811388 4.94729537 2.15811388 4.94729537 3 3 C3.66 3 4.32 3 5 3 C5.33 2.01 5.66 1.02 6 0 C5.84080078 1.09852295 5.68160156 2.1970459 5.51757812 3.32885742 C4.87850469 8.46248929 4.79217575 13.57029079 4.71875 18.73828125 C4.70034058 19.74086472 4.68193115 20.74344818 4.66296387 21.77641296 C4.58473751 26.03744496 4.51631237 30.29861746 4.44775391 34.55981445 C4.39607893 37.68188379 4.3388503 40.80381652 4.28125 43.92578125 C4.26767456 44.89139481 4.25409912 45.85700836 4.2401123 46.85188293 C4.22339478 47.7467894 4.20667725 48.64169586 4.18945312 49.5637207 C4.17692505 50.35011429 4.16439697 51.13650787 4.15148926 51.94673157 C4 54 4 54 3 57 C2.01 57 1.02 57 0 57 C-0.495 59.475 -0.495 59.475 -1 62 C-1.33 62 -1.66 62 -2 62 C-2.04640556 54.65450492 -2.08191089 47.30904161 -2.10362434 39.96342945 C-2.11404739 36.55230838 -2.12817938 33.14128783 -2.15087891 29.73022461 C-2.17683004 25.80583919 -2.18648505 21.88149404 -2.1953125 17.95703125 C-2.20563507 16.73603226 -2.21595764 15.51503326 -2.22659302 14.2570343 C-2.22674408 13.1162291 -2.22689514 11.97542389 -2.22705078 10.80004883 C-2.231492 9.79855301 -2.23593323 8.79705719 -2.24050903 7.76521301 C-1.98550248 4.83331709 -1.22694662 2.66034677 0 0 Z " fill="#CB1005" transform="translate(449,62)"/>
<path d="M0 0 C0.99 0.33 1.98 0.66 3 1 C3 1.99 3 2.98 3 4 C3.66 4 4.32 4 5 4 C4.99777939 4.86364166 4.99555878 5.72728333 4.99327087 6.61709595 C4.97320902 14.76796937 4.95799581 22.91883447 4.94818783 31.06972694 C4.9429759 35.25987428 4.935909 39.45000116 4.92456055 43.64013672 C4.91367153 47.68609187 4.90771043 51.73202738 4.90512276 55.77799606 C4.90327934 57.31930221 4.89967963 58.86060731 4.89426994 60.40190506 C4.88697965 62.56564889 4.88601242 64.72931222 4.88647461 66.89306641 C4.88314369 68.73839462 4.88314369 68.73839462 4.87974548 70.6210022 C4.92672924 74.01549609 4.92672924 74.01549609 5.56959534 77.38168335 C5.71162888 78.24572784 5.85366241 79.10977234 6 80 C5.505 80.495 5.505 80.495 5 81 C3.35 81 1.7 81 0 81 C0 54.27 0 27.54 0 0 Z " fill="#CA1004" transform="translate(57,60)"/>
<path d="M0 0 C2.15698344 3.23547516 2.25193348 4.1157916 2.25878906 7.84765625 C2.26509338 8.8329834 2.27139771 9.81831055 2.27789307 10.83349609 C2.2738446 11.89906738 2.26979614 12.96463867 2.265625 14.0625 C2.26753845 15.16416504 2.2694519 16.26583008 2.27142334 17.40087891 C2.27278585 19.73779528 2.26908483 22.07471921 2.26074219 24.41162109 C2.25012518 27.95818538 2.26059306 31.50423363 2.2734375 35.05078125 C2.27211432 37.32552194 2.26954867 39.60026231 2.265625 41.875 C2.26967346 42.92437744 2.27372192 43.97375488 2.27789307 45.05493164 C2.2289112 52.90642676 1.49419044 60.51742867 -1 68 C-0.34 68.33 0.32 68.66 1 69 C0.67 69.66 0.34 70.32 0 71 C1.485 70.505 1.485 70.505 3 70 C3 70.99 3 71.98 3 73 C1.35546875 74.3515625 1.35546875 74.3515625 -0.8125 75.625 C-1.52019531 76.05039063 -2.22789062 76.47578125 -2.95703125 76.9140625 C-10.12427252 80.72380069 -18.42072348 79.13570802 -26.06640625 77.6328125 C-26.70449219 77.42398438 -27.34257812 77.21515625 -28 77 C-28.33 76.34 -28.66 75.68 -29 75 C-27 72 -27 72 -24 71 C-21.43365139 70.77281504 -18.88321893 70.58391816 -16.3125 70.4375 C-15.61060547 70.39431641 -14.90871094 70.35113281 -14.18554688 70.30664062 C-12.45724794 70.2008264 -10.7286489 70.09993419 -9 70 C-9 69.34 -9 68.68 -9 68 C-8.236875 67.5875 -7.47375 67.175 -6.6875 66.75 C-3.31662865 64.555014 -2.45721081 62.71588757 -1 59 C-0.22047594 55.10589997 0.12301539 51.42043161 0.11352539 47.45361328 C0.11341209 45.86264328 0.11341209 45.86264328 0.11329651 44.23953247 C0.10813522 43.11118988 0.10297394 41.98284729 0.09765625 40.8203125 C0.09553383 39.06846146 0.09553383 39.06846146 0.09336853 37.28121948 C0.08778498 33.56245326 0.07523544 29.84374793 0.0625 26.125 C0.05748288 23.5989592 0.05292034 21.07291746 0.04882812 18.546875 C0.03782093 12.36456267 0.02109913 6.18228569 0 0 Z " fill="#BD150C" transform="translate(491,64)"/>
<path d="M0 0 C2.16874252 0.50603992 3.99967627 0.99983813 6 2 C3.89418377 8.72931971 0.76861372 14.8308483 -2.375 21.125 C-3.24125 22.89423828 -3.24125 22.89423828 -4.125 24.69921875 C-4.97191406 26.39884766 -4.97191406 26.39884766 -5.8359375 28.1328125 C-6.34688965 29.16293457 -6.8578418 30.19305664 -7.38427734 31.25439453 C-9.01032947 34.01755293 -10.52026952 35.9724521 -13 38 C-16.125 38 -16.125 38 -19 37 C-20.41015625 35.4296875 -20.41015625 35.4296875 -21 33 C-19.89552914 30.1956562 -18.7496542 27.74894988 -17.3125 25.125 C-16.76432617 24.08279297 -16.76432617 24.08279297 -16.20507812 23.01953125 C-15.48599121 21.65339475 -14.76102739 20.29033304 -14.02978516 18.93066406 C-12.63366565 16.31318823 -11.31323447 13.65982093 -10 11 C-9.67 11 -9.34 11 -9 11 C-8.67 13.97 -8.34 16.94 -8 20 C-3.96946876 18.32061198 -2.50251415 16.43996642 -0.8125 12.5625 C-0.20784629 11.04186024 0.39633239 9.52103149 1 8 C1.65288627 6.65986503 2.31529687 5.32416156 3 4 C2.01 3.67 1.02 3.34 0 3 C0 2.01 0 1.02 0 0 Z " fill="#B7190E" transform="translate(610,105)"/>
<path d="M0 0 C2.31 0 4.62 0 7 0 C7 0.66 7 1.32 7 2 C5.35 2 3.7 2 2 2 C2 5.96 2 9.92 2 14 C39.62 14 77.24 14 116 14 C116 14.66 116 15.32 116 16 C78.05 16 40.1 16 1 16 C-0.50156874 12.99686252 -0.09281204 10.20932478 -0.0625 6.875 C-0.05347656 5.59367187 -0.04445312 4.31234375 -0.03515625 2.9921875 C-0.02355469 2.00476562 -0.01195312 1.01734375 0 0 Z " fill="#A52118" transform="translate(61,43)"/>
<path d="M0 0 C1.6266848 0.28211877 3.25132896 0.57602375 4.875 0.875 C5.77992188 1.03742188 6.68484375 1.19984375 7.6171875 1.3671875 C10 2 10 2 12 4 C12.33 3.67 12.66 3.34 13 3 C15.42117545 2.78740899 17.82403778 2.62335401 20.25 2.5 C24.58528345 2.27446502 28.74035874 1.85800261 33 1 C35.8125 1.4375 35.8125 1.4375 38 2 C38 2.66 38 3.32 38 4 C38.66 4.33 39.32 4.66 40 5 C37.525 4.505 37.525 4.505 35 4 C35.495 5.485 35.495 5.485 36 7 C32.14243493 9.15305957 29.44870215 10.39253254 25 10 C25 10.66 25 11.32 25 12 C22.89551062 11.85890014 20.7914123 11.71195825 18.6875 11.5625 C17.51574219 11.48128906 16.34398437 11.40007812 15.13671875 11.31640625 C12 11 12 11 9 10 C9 9.01 9 8.02 9 7 C8.071875 6.731875 7.14375 6.46375 6.1875 6.1875 C3.24218975 5.09022755 1.84982123 4.46642831 0 2 C0 1.34 0 0.68 0 0 Z " fill="#C31207" transform="translate(523,132)"/>
<path d="M0 0 C6.01201726 0.30060086 9.70098056 3.05923218 14 7 C18.42128255 12.58477796 20.24774993 17.93825428 20.25878906 25.03369141 C20.26509338 26.20155182 20.27139771 27.36941223 20.27789307 28.57266235 C20.2738446 29.8196994 20.26979614 31.06673645 20.265625 32.3515625 C20.26753845 33.64315277 20.2694519 34.93474304 20.27142334 36.26547241 C20.27436194 38.99050719 20.27011652 41.71541029 20.26074219 44.44042969 C20.24932551 47.92853027 20.25592889 51.41632378 20.26788712 54.90441322 C20.27685817 58.24098751 20.27057538 61.57747949 20.265625 64.9140625 C20.26967346 66.16514801 20.27372192 67.41623352 20.27789307 68.70523071 C20.27158875 69.8667868 20.26528442 71.0283429 20.25878906 72.22509766 C20.25640228 73.75682114 20.25640228 73.75682114 20.25396729 75.31948853 C19.99679554 78.03382168 19.39175499 79.68131495 18 82 C18.00666183 81.23658295 18.01332367 80.47316589 18.02018738 79.68661499 C18.08040162 72.47759268 18.12602656 65.26869302 18.15543652 58.05948448 C18.171065 54.35351166 18.19225119 50.64774736 18.22631836 46.94189453 C18.25901319 43.36275825 18.27687419 39.78382202 18.28463173 36.20454788 C18.29015716 34.84184243 18.30094704 33.47914741 18.31719017 32.11652756 C18.33909636 30.20198069 18.34022653 28.28723075 18.34057617 26.37255859 C18.34723801 25.28445892 18.35389984 24.19635925 18.36076355 23.07528687 C17.93661082 19.45964636 16.93978035 17.07094404 15 14 C11.91038542 13.02525184 11.91038542 13.02525184 9 13 C9.33 16.3 9.66 19.6 10 23 C9.67 23 9.34 23 9 23 C8.85304688 22.39671875 8.70609375 21.7934375 8.5546875 21.171875 C7.35761357 16.90643915 6.56857469 14.50539973 3.1875 11.5 C0.03753295 10.01766257 -2.54730021 9.32882855 -6 9 C-6 8.67 -6 8.34 -6 8 C-5.05125 7.896875 -4.1025 7.79375 -3.125 7.6875 C0.29107501 7.31460705 0.29107501 7.31460705 2 4 C2 3.01 2 2.02 2 1 C1.34 0.67 0.68 0.34 0 0 Z " fill="#AB221A" transform="translate(553,45)"/>
<path d="M0 0 C2.31 0.33 4.62 0.66 7 1 C7 9.25 7 17.5 7 26 C5.68 26.33 4.36 26.66 3 27 C1.98775289 33.80114783 1.78628486 40.50524651 1.68359375 47.375 C1.66281265 48.5400708 1.64203156 49.7051416 1.62062073 50.90551758 C1.55557378 54.60362211 1.49644994 58.30179376 1.4375 62 C1.39427207 64.51693384 1.35065646 67.03386106 1.30664062 69.55078125 C1.19993872 75.70045122 1.09809147 81.85018699 1 88 C0.67 88 0.34 88 0 88 C0 65.89 0 43.78 0 21 C1.98 21.33 3.96 21.66 6 22 C5.28436734 19.9837767 5.28436734 19.9837767 4 18 C1.94999129 17.19471111 1.94999129 17.19471111 0 17 C0 16.34 0 15.68 0 15 C-0.66 14.67 -1.32 14.34 -2 14 C-1.67257813 13.44828125 -1.34515625 12.8965625 -1.0078125 12.328125 C0.16787715 9.61219077 0.20248638 7.69448241 0.125 4.75 C0.10695312 3.85796875 0.08890625 2.9659375 0.0703125 2.046875 C0.04710937 1.37140625 0.02390625 0.6959375 0 0 Z " fill="#B30C04" transform="translate(178,45)"/>
<path d="M0 0 C0.33 0 0.66 0 1 0 C1.12375 0.969375 1.2475 1.93875 1.375 2.9375 C1.58125 3.948125 1.7875 4.95875 2 6 C2.66 6.33 3.32 6.66 4 7 C3.67 7.66 3.34 8.32 3 9 C2.34 9 1.68 9 1 9 C0.34 11.31 -0.32 13.62 -1 16 C-0.34 16 0.32 16 1 16 C1.99 16 2.98 16 4 16 C3.67 16.99 3.34 17.98 3 19 C2.34 19 1.68 19 1 19 C1.06316406 20.01908447 1.12632812 21.03816895 1.19140625 22.08813477 C0.978373 26.44200181 -0.0163057 28.77149903 -2.0625 32.58984375 C-2.37324463 33.17923233 -2.68398926 33.76862091 -3.00415039 34.37586975 C-3.98943886 36.23721585 -4.99419467 38.08717499 -6 39.9375 C-6.67579972 41.20567738 -7.35029234 42.47455222 -8.0234375 43.74414062 C-9.66726094 46.83763331 -11.32870316 49.92124516 -13 53 C-14.13643966 49.59068103 -13.86747764 48.99664544 -12.5625 45.8125 C-12.13130859 44.73935547 -12.13130859 44.73935547 -11.69140625 43.64453125 C-11.46324219 43.10183594 -11.23507812 42.55914062 -11 42 C-10.34 42 -9.68 42 -9 42 C-9 40.68 -9 39.36 -9 38 C-8.34 38 -7.68 38 -7 38 C-7 37.01 -7 36.02 -7 35 C-6.34 35 -5.68 35 -5 35 C-5 33.68 -5 32.36 -5 31 C-4.34 31 -3.68 31 -3 31 C-3.185625 30.360625 -3.37125 29.72125 -3.5625 29.0625 C-3.706875 28.381875 -3.85125 27.70125 -4 27 C-3.67 26.67 -3.34 26.34 -3 26 C-4.65 26.33 -6.3 26.66 -8 27 C-8.33 28.65 -8.66 30.3 -9 32 C-10.485 32.495 -10.485 32.495 -12 33 C-12.33 33.66 -12.66 34.32 -13 35 C-13.66 35 -14.32 35 -15 35 C-13.63715461 31.41865342 -12.04590119 28.09114193 -10.21484375 24.7265625 C-9.68439453 23.7365625 -9.15394531 22.7465625 -8.60742188 21.7265625 C-7.4965186 19.6632708 -6.37934755 17.60334116 -5.25585938 15.546875 C-2.45841418 10.29953565 -0.27810335 5.98343566 0 0 Z " fill="#C91107" transform="translate(630,54)"/>
<path d="M0 0 C4.95 0.33 9.9 0.66 15 1 C14 4 14 4 12 6 C12 5.01 12 4.02 12 3 C11.01 3 10.02 3 9 3 C9 3.99 9 4.98 9 6 C8.34 6 7.68 6 7 6 C7.16371094 6.51046875 7.32742188 7.0209375 7.49609375 7.546875 C8.16698481 10.81291828 8.0933456 13.9186747 8.0625 17.25 C8.05347656 18.51328125 8.04445313 19.7765625 8.03515625 21.078125 C8.02355469 22.04234375 8.01195312 23.0065625 8 24 C7.01 24 6.02 24 5 24 C5 24.99 5 25.98 5 27 C1.125 26.125 1.125 26.125 0 25 C-0.08737645 23.14630389 -0.10698153 21.28932459 -0.09765625 19.43359375 C-0.09443359 18.30888672 -0.09121094 17.18417969 -0.08789062 16.02539062 C-0.07951172 14.84138672 -0.07113281 13.65738281 -0.0625 12.4375 C-0.05798828 11.24962891 -0.05347656 10.06175781 -0.04882812 8.83789062 C-0.03699686 5.89190588 -0.01906076 2.94594684 0 0 Z " fill="#C91106" transform="translate(585,44)"/>
<path d="M0 0 C5.61 0 11.22 0 17 0 C17 0.66 17 1.32 17 2 C17.66 2 18.32 2 19 2 C19 2.99 19 3.98 19 5 C19.66 5.33 20.32 5.66 21 6 C20.01 6.33 19.02 6.66 18 7 C18.33 7.66 18.66 8.32 19 9 C17.75863281 9.10957031 16.51726563 9.21914063 15.23828125 9.33203125 C13.59629103 9.49153887 11.95436722 9.6517312 10.3125 9.8125 C9.49587891 9.88275391 8.67925781 9.95300781 7.83789062 10.02539062 C3.15203764 10.49966724 -0.09696265 11.15667833 -4 14 C-4.99 14.495 -4.99 14.495 -6 15 C-5.33333333 13.66666667 -4.66666667 12.33333333 -4 11 C-3.71125 10.278125 -3.4225 9.55625 -3.125 8.8125 C-2 7 -2 7 0.125 6.25 C0.74375 6.1675 1.3625 6.085 2 6 C2 5.34 2 4.68 2 4 C0.68 3.34 -0.64 2.68 -2 2 C-1.34 2 -0.68 2 0 2 C0 1.34 0 0.68 0 0 Z " fill="#C21207" transform="translate(536,44)"/>
<path d="M0 0 C0.66 0 1.32 0 2 0 C2 14.85 2 29.7 2 45 C-0.64 45 -3.28 45 -6 45 C-6 40.71 -6 36.42 -6 32 C-5.67 33.32 -5.34 34.64 -5 36 C-3.515 35.505 -3.515 35.505 -2 35 C-1.96241577 33.5162085 -1.96241577 33.5162085 -1.92407227 32.00244141 C-1.83002213 28.33840596 -1.72979571 24.67456115 -1.62768555 21.01074219 C-1.58432759 19.42387343 -1.54265313 17.83695776 -1.50268555 16.25 C-1.44500368 13.97121021 -1.38130362 11.69265678 -1.31640625 9.4140625 C-1.29969376 8.70255035 -1.28298126 7.99103821 -1.26576233 7.25796509 C-1.11387171 2.22774341 -1.11387171 2.22774341 0 0 Z " fill="#B7190F" transform="translate(379,96)"/>
<path d="M0 0 C0.33 0.66 0.66 1.32 1 2 C3.02463255 2.65213292 3.02463255 2.65213292 5 3 C4.649375 4.0725 4.29875 5.145 3.9375 6.25 C2.76041667 9.70833333 2.76041667 9.70833333 3.5 12 C4.30910219 15.23640874 3.01147337 17.90608144 2 21 C1.34 21 0.68 21 0 21 C0 22.65 0 24.3 0 26 C-1.32 26 -2.64 26 -4 26 C-4.33 28.31 -4.66 30.62 -5 33 C-5.99 33 -6.98 33 -8 33 C-9.15941038 29.52176885 -8.70820884 27.54104422 -8 24 C-7.34 24 -6.68 24 -6 24 C-5.24758891 20.34543185 -4.59950296 16.68266103 -4 13 C-3.34 13 -2.68 13 -2 13 C-2.04125 12.154375 -2.0825 11.30875 -2.125 10.4375 C-1.98464972 6.57786731 -1.17219836 3.66311987 0 0 Z " fill="#CA1004" transform="translate(311,78)"/>
<path d="M0 0 C4.7267278 4.23775595 7.00055917 8.7783764 8 15 C8.09299681 16.86403252 8.1378733 18.73083171 8.14526367 20.59716797 C8.15164352 21.69535858 8.15802338 22.79354919 8.16459656 23.92501831 C8.16570938 25.10218414 8.1668222 26.27934998 8.16796875 27.4921875 C8.17129715 28.71148956 8.17462555 29.93079163 8.17805481 31.18704224 C8.18311343 33.76417667 8.18546346 36.34131764 8.18530273 38.91845703 C8.18748795 42.85330031 8.20565185 46.7878626 8.22460938 50.72265625 C8.22754379 53.22916571 8.22952826 55.7356765 8.23046875 58.2421875 C8.23765427 59.41530487 8.24483978 60.58842224 8.25224304 61.79708862 C8.23610547 67.59039926 7.9916144 72.53872394 6 78 C5.67 78 5.34 78 5 78 C4.875 71.25 4.875 71.25 6 69 C6.10056649 67.32604942 6.13835342 65.64814591 6.14526367 63.97119141 C6.15164352 62.92315338 6.15802338 61.87511536 6.16459656 60.7953186 C6.16570938 59.65887909 6.1668222 58.52243958 6.16796875 57.3515625 C6.17129715 56.18748871 6.17462555 55.02341492 6.17805481 53.82406616 C6.18312524 51.3576497 6.1854631 48.89122636 6.18530273 46.42480469 C6.18748689 42.64767151 6.20563526 38.87083137 6.22460938 35.09375 C6.2275437 32.70052184 6.22952823 30.30729228 6.23046875 27.9140625 C6.23765427 26.78167145 6.24483978 25.6492804 6.25224304 24.48257446 C6.24916641 23.42823212 6.24608978 22.37388977 6.24291992 21.28759766 C6.24434494 20.36097321 6.24576996 19.43434875 6.24723816 18.47964478 C5.98754151 15.87504911 5.32050965 14.23861178 4 12 C-0.14093698 11.79029441 -0.14093698 11.79029441 -4 13 C-4.556875 12.071875 -5.11375 11.14375 -5.6875 10.1875 C-8.61073376 6.1581778 -11.00044603 4.48877986 -15.8125 3.3125 C-16.534375 3.209375 -17.25625 3.10625 -18 3 C-18 2.67 -18 2.34 -18 2 C-13.47323984 1.92327525 -9.42277931 1.92781108 -5 3 C-4.67 3 -4.34 3 -4 3 C-3.67 4.65 -3.34 6.3 -3 8 C-1.35 8 0.3 8 2 8 C2.33 7.34 2.66 6.68 3 6 C2.34 6 1.68 6 1 6 C0.67 4.02 0.34 2.04 0 0 Z " fill="#B02319" transform="translate(494,51)"/>
<path d="M0 0 C1.98 0 3.96 0 6 0 C5.01 1.485 5.01 1.485 4 3 C4 3.99 4 4.98 4 6 C3.34 6 2.68 6 2 6 C2 7.32 2 8.64 2 10 C1.34 10 0.68 10 0 10 C0 10.99 0 11.98 0 13 C-0.66 13 -1.32 13 -2 13 C-2 14.32 -2 15.64 -2 17 C-2.66 17 -3.32 17 -4 17 C-4.185625 18.3303125 -4.185625 18.3303125 -4.375 19.6875 C-4.94412736 22.70387502 -5.76614436 25.20326054 -7 28 C-8.32 27.34 -9.64 26.68 -11 26 C-10.8864371 24.35333797 -10.75882619 22.70763918 -10.625 21.0625 C-10.55539062 20.14597656 -10.48578125 19.22945312 -10.4140625 18.28515625 C-10.27742187 17.53105469 -10.14078125 16.77695313 -10 16 C-9.34 15.67 -8.68 15.34 -8 15 C-8 13.35 -8 11.7 -8 10 C-7.34 10 -6.68 10 -6 10 C-5.67 9.01 -5.34 8.02 -5 7 C-4 6 -3 5 -2 4 C-0.82425289 1.90010348 -0.82425289 1.90010348 0 0 Z " fill="#C91005" transform="translate(623,79)"/>
<path d="M0 0 C3.35646278 1.89191924 3.68566976 3.45833178 4.765625 7.10546875 C5.0853125 8.18054688 5.405 9.255625 5.734375 10.36328125 C6.86436452 14.78154026 7.515625 18.84163776 7.515625 23.41796875 C2.88405784 22.98102845 2.88405784 22.98102845 0.515625 21.41796875 C-0.66135951 18.7015064 -1.25378262 16.07517609 -1.859375 13.1796875 C-2.41217224 10.21150186 -2.41217224 10.21150186 -4.234375 6.98046875 C-5.484375 4.41796875 -5.484375 4.41796875 -5.296875 2.10546875 C-3.96069186 -0.66968085 -2.91084138 -0.6819424 0 0 Z " fill="#CA1005" transform="translate(330.484375,53.58203125)"/>
<path d="M0 0 C12.54 0 25.08 0 38 0 C38.33 14.85 38.66 29.7 39 45 C41.97 45.495 41.97 45.495 45 46 C44.01 46.66 43.02 47.32 42 48 C37.65517241 46.65517241 37.65517241 46.65517241 36 45 C35.9072167 43.61839885 35.88252957 42.23211962 35.88647461 40.84741211 C35.88655014 39.96657455 35.88662567 39.085737 35.88670349 38.1782074 C35.89444542 36.74227989 35.89444542 36.74227989 35.90234375 35.27734375 C35.9037587 34.30213272 35.90517365 33.32692169 35.90663147 32.32215881 C35.91224867 29.19390857 35.92480407 26.06572877 35.9375 22.9375 C35.94251278 20.82226666 35.94707607 18.70703219 35.95117188 16.59179688 C35.96137469 11.39448199 35.98094669 6.19732025 36 1 C24.12 1 12.24 1 0 1 C0 0.67 0 0.34 0 0 Z " fill="#AF1D14" transform="translate(382,95)"/>
<path d="M0 0 C2.625 0.375 2.625 0.375 5 1 C7.13619737 7.20514474 8.36517527 12.42684522 8 19 C5.25 19.0625 5.25 19.0625 2 18 C-1.42122156 13.15845312 -2.72055393 7.88452373 -2 2 C-1.34 1.34 -0.68 0.68 0 0 Z " fill="#C91106" transform="translate(337,82)"/>
<path d="M0 0 C11.27487026 -0.46601071 19.3662369 -0.42250873 29 6 C29.6875 9.625 29.6875 9.625 30 13 C30.66 13 31.32 13 32 13 C31.67 13.99 31.34 14.98 31 16 C29.35 16 27.7 16 26 16 C25.6596875 14.7934375 25.6596875 14.7934375 25.3125 13.5625 C24.879375 12.716875 24.44625 11.87125 24 11 C21.45224694 10.10613836 21.45224694 10.10613836 19 10 C19.875 5.25 19.875 5.25 21 3 C19.02 3 17.04 3 15 3 C15 2.34 15 1.68 15 1 C10.05 1 5.1 1 0 1 C0 0.67 0 0.34 0 0 Z " fill="#CA1107" transform="translate(465,44)"/>
<path d="M0 0 C0.99 0.33 1.98 0.66 3 1 C3 1.99 3 2.98 3 4 C3.85851562 4.13728516 3.85851562 4.13728516 4.734375 4.27734375 C7.55455705 5.17688458 9.07584262 6.56952241 11.25 8.5625 C12.30960938 9.52349609 12.30960938 9.52349609 13.390625 10.50390625 C13.92171875 10.99761719 14.4528125 11.49132812 15 12 C14.125 15.875 14.125 15.875 13 17 C12.67 17.66 12.34 18.32 12 19 C11.01 18.67 10.02 18.34 9 18 C9 16.35 9 14.7 9 13 C8.071875 12.731875 7.14375 12.46375 6.1875 12.1875 C1.45454545 10.42424242 1.45454545 10.42424242 0 8 C-0.24222254 5.28172479 -0.13476191 2.74015885 0 0 Z " fill="#C41209" transform="translate(150,85)"/>
<path d="M0 0 C2 2 2 2 2.25 5 C2 8 2 8 0 10 C-3.13704316 10.333728 -5.16554166 10.52849028 -7.875 8.8125 C-9.42229478 6.31963619 -9.50405716 4.88032665 -9 2 C-6.07557433 -1.24936186 -4.04996841 -1.38551551 0 0 Z " fill="#AE1D1B" transform="translate(548,89)"/>
<path d="M0 0 C0.66 0.66 1.32 1.32 2 2 C1.625 5.625 1.625 5.625 1 9 C-5.42548263 10.33359073 -5.42548263 10.33359073 -7.9375 8.875 C-9.37604008 6.33639987 -9.50262362 4.87213496 -9 2 C-6.07557433 -1.24936186 -4.04996841 -1.38551551 0 0 Z " fill="#9E2720" transform="translate(477,89)"/>
<path d="M0 0 C2.17327966 3.25991949 3.25492352 6.45829861 4.41796875 10.15234375 C4.63947098 10.84888565 4.86097321 11.54542755 5.08918762 12.26307678 C5.55478796 13.73406171 6.01775691 15.20588177 6.47827148 16.6784668 C7.18490635 18.92923872 7.90746991 21.17448753 8.63085938 23.41992188 C9.08171637 24.85125191 9.53161844 26.28288317 9.98046875 27.71484375 C10.19809372 28.38474838 10.41571869 29.05465302 10.63993835 29.74485779 C11.68691691 33.15152958 12.37080446 35.61868233 11 39 C10.67 37.02 10.34 35.04 10 33 C9.34 33 8.68 33 8 33 C7.87625 32.195625 7.7525 31.39125 7.625 30.5625 C7.41875 29.716875 7.2125 28.87125 7 28 C6.34 27.67 5.68 27.34 5 27 C5.33 25.02 5.66 23.04 6 21 C4.68 21.33 3.36 21.66 2 22 C1.15413926 16.92483557 1 12.15992715 1 7 C0.75011168 4.64391009 0.38978314 2.33869886 0 0 Z " fill="#B51D12" transform="translate(343,86)"/>
<path d="M0 0 C0.66 0 1.32 0 2 0 C2 1.65 2 3.3 2 5 C2.99 5 3.98 5 5 5 C5.33 7.97 5.66 10.94 6 14 C8.97 14.495 8.97 14.495 12 15 C11.67 13.80375 11.34 12.6075 11 11.375 C10.10734177 7.84208503 9.81703955 4.65920891 10 1 C13.13026982 5.69540473 14.757101 10.32174248 14 16 C12.3125 17.9375 12.3125 17.9375 10 19 C7.35546875 18.56640625 7.35546875 18.56640625 5 18 C4.16112944 15.56427941 3.32873471 13.12666783 2.5 10.6875 C2.14228516 9.65206055 2.14228516 9.65206055 1.77734375 8.59570312 C0.76791737 5.61068511 0 3.17341086 0 0 Z " fill="#AC1F19" transform="translate(345,124)"/>
<path d="M0 0 C0.33 0 0.66 0 1 0 C1.12375 0.969375 1.2475 1.93875 1.375 2.9375 C1.58125 3.948125 1.7875 4.95875 2 6 C2.66 6.33 3.32 6.66 4 7 C3.67 7.66 3.34 8.32 3 9 C2.34 9 1.68 9 1 9 C0.67 10.32 0.34 11.64 0 13 C-0.99 13 -1.98 13 -3 13 C-3.12117187 13.61488281 -3.24234375 14.22976562 -3.3671875 14.86328125 C-3.61855469 16.07564453 -3.61855469 16.07564453 -3.875 17.3125 C-4.03742187 18.11300781 -4.19984375 18.91351563 -4.3671875 19.73828125 C-5 22 -5 22 -7 25 C-7.66 25 -8.32 25 -9 25 C-8.814375 25.598125 -8.62875 26.19625 -8.4375 26.8125 C-8 29 -8 29 -9 32 C-10.485 32.495 -10.485 32.495 -12 33 C-12.33 33.66 -12.66 34.32 -13 35 C-13.66 35 -14.32 35 -15 35 C-13.63715461 31.41865342 -12.04590119 28.09114193 -10.21484375 24.7265625 C-9.68439453 23.7365625 -9.15394531 22.7465625 -8.60742188 21.7265625 C-7.4965186 19.6632708 -6.37934755 17.60334116 -5.25585938 15.546875 C-2.45841418 10.29953565 -0.27810335 5.98343566 0 0 Z " fill="#A11A16" transform="translate(630,54)"/>
<path d="M0 0 C0.33 0 0.66 0 1 0 C1.33 7.92 1.66 15.84 2 24 C3.32 24.66 4.64 25.32 6 26 C6 25.01 6 24.02 6 23 C6.99 23 7.98 23 9 23 C9 18.05 9 13.1 9 8 C9.33 8 9.66 8 10 8 C10.0809313 10.60478883 10.14045434 13.20706653 10.1875 15.8125 C10.22520508 16.91948242 10.22520508 16.91948242 10.26367188 18.04882812 C10.33773206 23.50459477 10.33773206 23.50459477 8.64453125 25.98828125 C6.27457992 27.44627981 4.72703052 27.40905458 2 27 C-0.2485153 25.33844787 -0.92894537 24.46414249 -1.35644531 21.67163086 C-1.34709961 20.77839111 -1.33775391 19.88515137 -1.328125 18.96484375 C-1.32296875 17.99095703 -1.3178125 17.01707031 -1.3125 16.01367188 C-1.291875 14.99853516 -1.27125 13.98339844 -1.25 12.9375 C-1.24484375 11.91849609 -1.2396875 10.89949219 -1.234375 9.84960938 C-1.15441985 2.30883971 -1.15441985 2.30883971 0 0 Z " fill="#A2251D" transform="translate(584,45)"/>
<path d="M0 0 C0.66 0 1.32 0 2 0 C2.08121924 1.60332791 2.13929134 3.20784026 2.1875 4.8125 C2.22230469 5.70582031 2.25710938 6.59914063 2.29296875 7.51953125 C1.94311203 10.48165148 1.15035754 11.06078868 -1 13 C-1.12375 13.99 -1.2475 14.98 -1.375 16 C-2 19 -2 19 -4.375 20.9375 C-7 22 -7 22 -10 21 C-9.34 20.34 -8.68 19.68 -8 19 C-7.28591666 17.01643517 -6.61382258 15.01684563 -6 13 C-5.34 13 -4.68 13 -4 13 C-3.67 11.35 -3.34 9.7 -3 8 C-2.01 7.67 -1.02 7.34 0 7 C-0.33 6.67 -0.66 6.34 -1 6 C-1.125 3.5 -1.125 3.5 -1 1 C-0.67 0.67 -0.34 0.34 0 0 Z " fill="#CC1005" transform="translate(637,50)"/>
<path d="M0 0 C0.33 0.66 0.66 1.32 1 2 C0.22265625 3.7265625 0.22265625 3.7265625 -0.9375 5.625 C-1.618125 6.73875 -2.29875 7.8525 -3 9 C-1.68 9.33 -0.36 9.66 1 10 C-0.65 11.65 -2.3 13.3 -4 15 C-5.9375 14.1875 -5.9375 14.1875 -8 13 C-8.33 12.01 -8.66 11.02 -9 10 C-7.63671875 8.02734375 -7.63671875 8.02734375 -5.6875 5.9375 C-5.05199219 5.24527344 -4.41648438 4.55304688 -3.76171875 3.83984375 C-2.52249988 2.5456706 -1.26699399 1.26699399 0 0 Z " fill="#B11D14" transform="translate(150,107)"/>
<path d="M0 0 C2.31 0.33 4.62 0.66 7 1 C7 1.66 7 2.32 7 3 C7.66 3.33 8.32 3.66 9 4 C7.35 3.67 5.7 3.34 4 3 C4.33 3.99 4.66 4.98 5 6 C1.91111478 8.05925681 1.29064073 8.2390374 -2.1875 8.125 C-4.0746875 8.063125 -4.0746875 8.063125 -6 8 C-5.34 7.34 -4.68 6.68 -4 6 C-4.66 5.01 -5.32 4.02 -6 3 C-5.195625 2.87625 -4.39125 2.7525 -3.5625 2.625 C-2.716875 2.41875 -1.87125 2.2125 -1 2 C-0.67 1.34 -0.34 0.68 0 0 Z " fill="#CA1005" transform="translate(554,133)"/>
<path d="M0 0 C0.93423645 3.01031744 1.04449911 3.86650268 0 7 C0.66 7.33 1.32 7.66 2 8 C1.67 8.66 1.34 9.32 1 10 C1.99 9.67 2.98 9.34 4 9 C4 9.99 4 10.98 4 12 C-1.25714286 16 -1.25714286 16 -4 16 C-4 14 -4 14 -2 12 C-2 11.34 -2 10.68 -2 10 C-3.98 9.34 -5.96 8.68 -8 8 C-7.236875 7.4225 -6.47375 6.845 -5.6875 6.25 C-3.33799083 4.28296907 -1.70676495 2.51523256 0 0 Z " fill="#B61910" transform="translate(490,125)"/>
<path d="M0 0 C0.66 0 1.32 0 2 0 C2 1.32 2 2.64 2 4 C1.34 4 0.68 4 0 4 C0 5.32 0 6.64 0 8 C-0.66 8 -1.32 8 -2 8 C-2 9.65 -2 11.3 -2 13 C-3.65 12.67 -5.3 12.34 -7 12 C-7.22036864 8.14354879 -6.60355101 5.50776784 -5 2 C-3.68 2 -2.36 2 -1 2 C-0.67 1.34 -0.34 0.68 0 0 Z " fill="#CB1007" transform="translate(601,128)"/>
<path d="M0 0 C0.33 0 0.66 0 1 0 C1.34911456 9.9885556 1.34911456 9.9885556 -1 15 C-0.67 15.66 -0.34 16.32 0 17 C-0.66 17 -1.32 17 -2 17 C-2.99 19.97 -3.98 22.94 -5 26 C-5.66 26 -6.32 26 -7 26 C-5.55993623 17.05870856 -2.79194029 8.58894609 0 0 Z " fill="#AB1B13" transform="translate(300,108)"/>
<path d="M0 0 C1.32 0.66 2.64 1.32 4 2 C3.34 2.391875 2.68 2.78375 2 3.1875 C1.01 4.0846875 1.01 4.0846875 0 5 C-0.04165365 6.66614608 -0.04165365 8.33385392 0 10 C-1.1875 11.875 -1.1875 11.875 -3 13 C-5.6875 12.6875 -5.6875 12.6875 -8 12 C-7.71125 11.443125 -7.4225 10.88625 -7.125 10.3125 C-5.94107481 7.99978964 -5.94107481 7.99978964 -5.125 5.4375 C-3.84573028 2.66574894 -2.54768145 1.61353158 0 0 Z " fill="#C31106" transform="translate(155,104)"/>
<path d="M0 0 C1.796875 1.26171875 1.796875 1.26171875 2.796875 3.26171875 C1.476875 3.26171875 0.156875 3.26171875 -1.203125 3.26171875 C-1.533125 4.25171875 -1.863125 5.24171875 -2.203125 6.26171875 C-4.265625 7.94921875 -4.265625 7.94921875 -6.203125 9.26171875 C-7.523125 8.60171875 -8.843125 7.94171875 -10.203125 7.26171875 C-10.203125 6.27171875 -10.203125 5.28171875 -10.203125 4.26171875 C-8.59375 2.8046875 -8.59375 2.8046875 -6.453125 1.44921875 C-5.75703125 0.98902344 -5.0609375 0.52882813 -4.34375 0.0546875 C-2.203125 -0.73828125 -2.203125 -0.73828125 0 0 Z " fill="#C71108" transform="translate(84.203125,94.73828125)"/>
<path d="M0 0 C0.66 0.33 1.32 0.66 2 1 C1.01 1.33 0.02 1.66 -1 2 C-1 2.66 -1 3.32 -1 4 C-9.58 4 -18.16 4 -27 4 C-27 3.34 -27 2.68 -27 2 C-26.2886792 1.97494385 -25.5773584 1.9498877 -24.84448242 1.92407227 C-21.62530483 1.80811561 -18.40642015 1.68538755 -15.1875 1.5625 C-14.06794922 1.52318359 -12.94839844 1.48386719 -11.79492188 1.44335938 C-10.72177734 1.40146484 -9.64863281 1.35957031 -8.54296875 1.31640625 C-7.0583313 1.26141968 -7.0583313 1.26141968 -5.54370117 1.20532227 C-2.8781649 1.09209669 -2.8781649 1.09209669 0 0 Z " fill="#A11A0F" transform="translate(261,131)"/>
<path d="M0 0 C0.33 0.66 0.66 1.32 1 2 C-0.17163086 4.70556641 -0.17163086 4.70556641 -1.96484375 8.1015625 C-2.27700333 8.69802582 -2.5891629 9.29448914 -2.91078186 9.9090271 C-3.91224257 11.81837656 -4.92469588 13.72164741 -5.9375 15.625 C-6.617267 16.91628235 -7.29631301 18.20794453 -7.97460938 19.5 C-9.64138745 22.67112108 -11.3180745 25.83688172 -13 29 C-14.13643966 25.59068103 -13.86747764 24.99664544 -12.5625 21.8125 C-12.27503906 21.09707031 -11.98757813 20.38164063 -11.69140625 19.64453125 C-11.46324219 19.10183594 -11.23507812 18.55914062 -11 18 C-10.34 18 -9.68 18 -9 18 C-9 16.68 -9 15.36 -9 14 C-8.34 14 -7.68 14 -7 14 C-7 13.01 -7 12.02 -7 11 C-6.34 11 -5.68 11 -5 11 C-5 9.68 -5 8.36 -5 7 C-4.34 7 -3.68 7 -3 7 C-3.33 5.68 -3.66 4.36 -4 3 C-2.68 2.01 -1.36 1.02 0 0 Z " fill="#AB2116" transform="translate(630,78)"/>
<path d="M0 0 C0.33 0 0.66 0 1 0 C3.8587083 12.97895302 -0.58800878 20.97587474 -7 32 C-7.33 32 -7.66 32 -8 32 C-8 30.35 -8 28.7 -8 27 C-7.34 27 -6.68 27 -6 27 C-6 25.68 -6 24.36 -6 23 C-5.34 23 -4.68 23 -4 23 C-4 20.36 -4 17.72 -4 15 C-3.01 14.67 -2.02 14.34 -1 14 C-0.67 9.38 -0.34 4.76 0 0 Z " fill="#B61D16" transform="translate(639,46)"/>
<path d="M0 0 C0.66 0.33 1.32 0.66 2 1 C-2.20555303 7.9553377 -7.15315412 12.33767729 -15 15 C-18.4375 15.1875 -18.4375 15.1875 -21 15 C-21 14.67 -21 14.34 -21 14 C-16.05 12.515 -16.05 12.515 -11 11 C-11 10.01 -11 9.02 -11 8 C-10.01 8 -9.02 8 -8 8 C-8 7.34 -8 6.68 -8 6 C-7.01 5.67 -6.02 5.34 -5 5 C-4.67 4.34 -4.34 3.68 -4 3 C-3.01 2.67 -2.02 2.34 -1 2 C-0.67 1.34 -0.34 0.68 0 0 Z " fill="#A81C13" transform="translate(569,128)"/>
<path d="M0 0 C-0.54723683 3.37462715 -1.0549 5.08235 -3 8 C-5.5625 8.25 -5.5625 8.25 -8 8 C-9.44754255 6.55245745 -9.55733561 4.96037087 -10 3 C-6.48812804 0.59185923 -4.27343092 -0.36629408 0 0 Z " fill="#C91207" transform="translate(499,127)"/>
<path d="M0 0 C5.96094661 0.29804733 9.71972158 3.10303009 14 7 C15.03349332 8.30754324 16.04363337 9.6350309 17 11 C16.67 11.66 16.34 12.32 16 13 C15.01 12.34 14.02 11.68 13 11 C13 10.01 13 9.02 13 8 C11.35 7.67 9.7 7.34 8 7 C8 6.34 8 5.68 8 5 C6.02 5.99 6.02 5.99 4 7 C4 6.01 4 5.02 4 4 C3.34 4 2.68 4 2 4 C2 3.01 2 2.02 2 1 C1.34 0.67 0.68 0.34 0 0 Z " fill="#B01D16" transform="translate(553,45)"/>
<path d="M0 0 C0.99 0.33 1.98 0.66 3 1 C2.34 1 1.68 1 1 1 C3.31 3.64 5.62 6.28 8 9 C7.01 9.495 7.01 9.495 6 10 C3.875 9.0625 3.875 9.0625 2 8 C2 7.01 2 6.02 2 5 C1.01 5.33 0.02 5.66 -1 6 C-1.66 5.01 -2.32 4.02 -3 3 C-2.01 2.01 -1.02 1.02 0 0 Z M-4 4 C-1.9375 6.3125 -1.9375 6.3125 0 9 C-0.33 9.99 -0.66 10.98 -1 12 C-2.98 9.69 -4.96 7.38 -7 5 C-6.01 4.67 -5.02 4.34 -4 4 Z " fill="#B31D13" transform="translate(83,98)"/>
<path d="M0 0 C0.33 0 0.66 0 1 0 C1.19392201 5.52677733 0.7479503 9.75614911 -1 15 C-1.66 15 -2.32 15 -3 15 C-2.938125 16.3303125 -2.938125 16.3303125 -2.875 17.6875 C-2.99897246 20.97277013 -3.61387904 23.05449295 -5 26 C-5.66 26 -6.32 26 -7 26 C-6.36519395 20.077822 -4.78907028 14.71172256 -2.9375 9.0625 C-2.65583984 8.18787109 -2.37417969 7.31324219 -2.08398438 6.41210938 C-1.39434445 4.27305673 -0.69959171 2.13581421 0 0 Z " fill="#AB1C14" transform="translate(310,76)"/>
<path d="M0 0 C0.33 0 0.66 0 1 0 C1 1.98 1 3.96 1 6 C1.99 5.01 2.98 4.02 4 3 C4.66 3.33 5.32 3.66 6 4 C6.33 3.67 6.66 3.34 7 3 C7.66 3 8.32 3 9 3 C9.33 2.01 9.66 1.02 10 0 C11 3 11 3 10.4375 5.625 C9 8 9 8 6.125 9.0625 C3 9 3 9 0.5625 7.375 C-1 5 -1 5 -0.75 2.25 C-0.5025 1.5075 -0.255 0.765 0 0 Z " fill="#B01D14" transform="translate(292,134)"/>
<path d="M0 0 C4.1724031 0.51006598 6.08024151 1.59504611 8.98828125 4.59765625 C9.69404297 5.31630859 10.39980469 6.03496094 11.12695312 6.77539062 C11.84818359 7.53013672 12.56941406 8.28488281 13.3125 9.0625 C14.05306641 9.82111328 14.79363281 10.57972656 15.55664062 11.36132812 C17.38043834 13.23219159 19.19424304 15.11174492 21 17 C18 17 18 17 16.5 15.72265625 C16.005 15.17480469 15.51 14.62695312 15 14.0625 C12.87768805 11.72464075 12.11172349 11.03724116 9 10 C8.67 9.01 8.34 8.02 8 7 C7.01 6.67 6.02 6.34 5 6 C5 5.34 5 4.68 5 4 C3.02 3.34 1.04 2.68 -1 2 C-0.67 1.34 -0.34 0.68 0 0 Z " fill="#AC221A" transform="translate(144,79)"/>
<path d="M0 0 C1.13199353 0.9080162 2.25532363 1.82683826 3.375 2.75 C4.00148438 3.26046875 4.62796875 3.7709375 5.2734375 4.296875 C7.08312318 6.08199481 8.00117455 7.67949644 9 10 C7.68 11.32 6.36 12.64 5 14 C3.35 13.01 1.7 12.02 0 11 C2.46278801 9.768606 4.2795055 9.92840804 7 10 C6.08813531 7.66513833 6.08813531 7.66513833 3 6.5625 C0 5 0 5 -1 2 C-0.67 1.34 -0.34 0.68 0 0 Z " fill="#B61811" transform="translate(91,108)"/>
<path d="M0 0 C2.16874252 0.50603992 3.99967627 0.99983813 6 2 C4.55676531 6.73789165 2.62773267 10.98858151 0.375 15.375 C-0.11226562 16.33599609 -0.11226562 16.33599609 -0.609375 17.31640625 C-1.40257407 18.87947501 -2.20077031 20.44000622 -3 22 C-3.58203125 20.15234375 -3.58203125 20.15234375 -4 18 C-2.6875 15.5625 -2.6875 15.5625 -1 13 C-0.31246699 11.34183216 0.35561283 9.67540664 1 8 C1.65213539 6.65949948 2.31379969 5.32338632 3 4 C2.01 3.67 1.02 3.34 0 3 C0 2.01 0 1.02 0 0 Z " fill="#B0211A" transform="translate(610,105)"/>
<path d="M0 0 C0.66 0 1.32 0 2 0 C2 0.66 2 1.32 2 2 C3.32 2.33 4.64 2.66 6 3 C5.67 4.65 5.34 6.3 5 8 C3.02 8 1.04 8 -1 8 C-1.625 5.125 -1.625 5.125 -2 2 C-1.34 1.34 -0.68 0.68 0 0 Z " fill="#C81006" transform="translate(543,89)"/>
<path d="M0 0 C1.32 0 2.64 0 4 0 C4 1.65 4 3.3 4 5 C3.34 5 2.68 5 2 5 C1.67 6.32 1.34 7.64 1 9 C-0.65 9 -2.3 9 -4 9 C-4 7.68 -4 6.36 -4 5 C-3.34 5 -2.68 5 -2 5 C-2 4.01 -2 3.02 -2 2 C-1.34 2 -0.68 2 0 2 C0 1.34 0 0.68 0 0 Z " fill="#CB1007" transform="translate(123,91)"/>
<path d="M0 0 C1.134375 0.020625 2.26875 0.04125 3.4375 0.0625 C3.4375 2.0425 3.4375 4.0225 3.4375 6.0625 C0.7975 6.0625 -1.8425 6.0625 -4.5625 6.0625 C-4.605221 4.39638095 -4.60313832 2.72867115 -4.5625 1.0625 C-3.5625 0.0625 -3.5625 0.0625 0 0 Z " fill="#C81208" transform="translate(473.5625,90.9375)"/>
<path d="M0 0 C1.07174763 3.65188082 0.76411467 6.26432828 0 10 C0.66 10.33 1.32 10.66 2 11 C1.67 12.32 1.34 13.64 1 15 C-0.32 15 -1.64 15 -3 15 C-3.66 17.64 -4.32 20.28 -5 23 C-6.14176746 19.57469763 -5.83108216 18.68326326 -4.78515625 15.33203125 C-4.51123047 14.43935547 -4.23730469 13.54667969 -3.95507812 12.62695312 C-3.66052734 11.69818359 -3.36597656 10.76941406 -3.0625 9.8125 C-2.77181641 8.87212891 -2.48113281 7.93175781 -2.18164062 6.96289062 C-1.46218113 4.63939029 -0.73470814 2.31871482 0 0 Z " fill="#AC1C14" transform="translate(317,53)"/>
<path d="M0 0 C0 3 0 3 -2 6 C-0.35 6.99 1.3 7.98 3 9 C2.67 9.66 2.34 10.32 2 11 C1.154375 10.5875 0.30875 10.175 -0.5625 9.75 C-4.30811239 8.93277548 -4.75766516 9.05920007 -7.875 10.875 C-8.90625 11.57625 -9.9375 12.2775 -11 13 C-9.46356148 9.31930113 -7.21849055 7.01224796 -4.375 4.25 C-3.55773437 3.45078125 -2.74046875 2.6515625 -1.8984375 1.828125 C-0.95871094 0.92320313 -0.95871094 0.92320313 0 0 Z " fill="#AE180F" transform="translate(86,86)"/>
<path d="M0 0 C19.1720124 -0.79241383 19.1720124 -0.79241383 26 4 C27.02634699 4.9729398 28.03463433 5.96652571 29 7 C27.68 7 26.36 7 25 7 C25 6.34 25 5.68 25 5 C23.68 5 22.36 5 21 5 C21 4.34 21 3.68 21 3 C19.02 3 17.04 3 15 3 C15 2.34 15 1.68 15 1 C10.05 1 5.1 1 0 1 C0 0.67 0 0.34 0 0 Z " fill="#A41B10" transform="translate(465,44)"/>
<path d="M0 0 C0.33 1.32 0.66 2.64 1 4 C2.65 4 4.3 4 6 4 C6.33 2.68 6.66 1.36 7 0 C7.66 0 8.32 0 9 0 C7.66511872 3.59391114 6.03977277 6.75490696 4 10 C3.67 8.68 3.34 7.36 3 6 C1.02 6.33 -0.96 6.66 -3 7 C-1.125 1.125 -1.125 1.125 0 0 Z " fill="#AD1A0D" transform="translate(118,96)"/>
<path d="M0 0 C0 0.66 0 1.32 0 2 C-0.928125 2.4021875 -0.928125 2.4021875 -1.875 2.8125 C-4.2995233 3.95556848 -4.2995233 3.95556848 -6 7 C-7.9453125 7.94921875 -7.9453125 7.94921875 -10.125 8.6875 C-11.21167969 9.06455078 -11.21167969 9.06455078 -12.3203125 9.44921875 C-12.87460937 9.63097656 -13.42890625 9.81273437 -14 10 C-12.55224845 6.40018534 -10.79045708 4.84896717 -7.5625 2.75 C-6.78003906 2.22921875 -5.99757813 1.7084375 -5.19140625 1.171875 C-3 0 -3 0 0 0 Z " fill="#A9180D" transform="translate(464,45)"/>
<path d="M0 0 C0.85658203 0.433125 0.85658203 0.433125 1.73046875 0.875 C8.93384818 4.17320871 15.15386261 4.44272876 23 4 C20.10072002 6.89927998 17.91446686 6.30045388 13.875 6.3125 C7.97254544 6.30122636 3.32207752 5.60673185 -2 3 C-1 1 -1 1 0 0 Z " fill="#A31D15" transform="translate(459,129)"/>
<path d="M0 0 C2.3145363 3.47180445 3.44955764 6.99795123 4.6875 10.9375 C4.92533203 11.65357422 5.16316406 12.36964844 5.40820312 13.10742188 C6.58772664 16.83969715 7.18041207 19.26865804 6 23 C5.67 21.02 5.34 19.04 5 17 C4.34 17 3.68 17 3 17 C2.87625 16.195625 2.7525 15.39125 2.625 14.5625 C2.315625 13.2940625 2.315625 13.2940625 2 12 C1.34 11.67 0.68 11.34 0 11 C0 7.37 0 3.74 0 0 Z " fill="#AD231A" transform="translate(348,102)"/>
<path d="M0 0 C4.52676016 -0.07672475 8.57722069 -0.07218892 13 1 C13.33 1 13.66 1 14 1 C14.33 4.3 14.66 7.6 15 11 C14.1028125 9.8553125 14.1028125 9.8553125 13.1875 8.6875 C12.465625 7.800625 11.74375 6.91375 11 6 C10.5875 5.443125 10.175 4.88625 9.75 4.3125 C6.84181401 2.13136051 3.52664923 1.75158098 0 1 C0 0.67 0 0.34 0 0 Z " fill="#AF1C10" transform="translate(476,53)"/>
<path d="M0 0 C0.33 0.99 0.66 1.98 1 3 C3.64 3 6.28 3 9 3 C9 3.33 9 3.66 9 4 C5 5.33333333 1 6.66666667 -3 8 C-3.33 8.99 -3.66 9.98 -4 11 C-5.04449911 7.86650268 -4.93423645 7.01031744 -4 4 C-3.01 4 -2.02 4 -1 4 C-0.67 2.68 -0.34 1.36 0 0 Z " fill="#B4150D" transform="translate(462,50)"/>
<path d="M0 0 C0.33 0 0.66 0 1 0 C2.125 6.625 2.125 6.625 1 10 C-0.32 10 -1.64 10 -3 10 C-3.66 11.32 -4.32 12.64 -5 14 C-5.33 13.34 -5.66 12.68 -6 12 C-4.78515625 9.1796875 -4.78515625 9.1796875 -3.0625 5.875 C-2.49660156 4.77929688 -1.93070313 3.68359375 -1.34765625 2.5546875 C-0.90292969 1.71164063 -0.45820312 0.86859375 0 0 Z " fill="#AF1B13" transform="translate(600,116)"/>
<path d="M0 0 C2.31 0 4.62 0 7 0 C7 0.66 7 1.32 7 2 C5.35 2 3.7 2 2 2 C2 5.96 2 9.92 2 14 C1.34 14 0.68 14 0 14 C0 9.38 0 4.76 0 0 Z " fill="#A61D14" transform="translate(61,43)"/>
<path d="M0 0 C2.475 0.495 2.475 0.495 5 1 C4.690625 1.66 4.38125 2.32 4.0625 3 C2.75039745 6.70476015 2.39735865 10.09263991 2 14 C1.34 14 0.68 14 0 14 C0 9.38 0 4.76 0 0 Z " fill="#B80702" transform="translate(178,66)"/>
<path d="M0 0 C0.99 0 1.98 0 3 0 C3 0.99 3 1.98 3 3 C4.32 3.33 5.64 3.66 7 4 C6.67 4.66 6.34 5.32 6 6 C5.01 5.67 4.02 5.34 3 5 C3 5.99 3 6.98 3 8 C2.01 8 1.02 8 0 8 C-1.125 2.25 -1.125 2.25 0 0 Z " fill="#C91104" transform="translate(454,129)"/>
<path d="M0 0 C1.32 0 2.64 0 4 0 C2.83795007 6.54849313 1.26616615 12.74538144 -1 19 C-1.33 19 -1.66 19 -2 19 C-2 16.69 -2 14.38 -2 12 C-1.34 12 -0.68 12 0 12 C-0.020625 11.0925 -0.04125 10.185 -0.0625 9.25 C-0.01056627 6.54944606 0.35696736 4.57213055 1 2 C0.67 1.34 0.34 0.68 0 0 Z " fill="#AB2119" transform="translate(313,87)"/>
<path d="M0 0 C0.33 0.66 0.66 1.32 1 2 C1.99 2.33 2.98 2.66 4 3 C3.67 4.32 3.34 5.64 3 7 C2.34 7 1.68 7 1 7 C1 8.65 1 10.3 1 12 C-0.32 10.68 -1.64 9.36 -3 8 C-2.01 5.36 -1.02 2.72 0 0 Z " fill="#CB1008" transform="translate(130,76)"/>
<path d="M0 0 C2.125 0.375 2.125 0.375 4 1 C4.625 2.875 4.625 2.875 5 5 C4.34 5.66 3.68 6.32 3 7 C0.875 6.625 0.875 6.625 -1 6 C-1.625 4.125 -1.625 4.125 -2 2 C-1.34 1.34 -0.68 0.68 0 0 Z " fill="#A91D1A" transform="translate(77,47)"/>
<path d="M0 0 C0.33 0.99 0.66 1.98 1 3 C-1.15859924 6.83750975 -3.28595371 9.61239881 -7 12 C-7 10.35 -7 8.7 -7 7 C-5.68 7 -4.36 7 -3 7 C-3.33 5.68 -3.66 4.36 -4 3 C-2.68 2.01 -1.36 1.02 0 0 Z " fill="#B51E13" transform="translate(278,125)"/>
<path d="M0 0 C1.98 0.495 1.98 0.495 4 1 C4.88855164 3.99553637 5.19605797 5.51639033 4.00390625 8.45703125 C3.52824219 9.23433594 3.05257812 10.01164062 2.5625 10.8125 C1.85287109 11.99779297 1.85287109 11.99779297 1.12890625 13.20703125 C0.75636719 13.79871094 0.38382813 14.39039062 0 15 C-1.09658936 11.71023192 -0.79953138 10.28696233 0 7 C0.66 7 1.32 7 2 7 C2 5.68 2 4.36 2 3 C1.34 2.67 0.68 2.34 0 2 C0 1.34 0 0.68 0 0 Z " fill="#A11B16" transform="translate(131,76)"/>
<path d="M0 0 C1.32 0.66 2.64 1.32 4 2 C3.67 3.32 3.34 4.64 3 6 C1.68 6.33 0.36 6.66 -1 7 C-1.66 5.68 -2.32 4.36 -3 3 C-2.01 2.01 -1.02 1.02 0 0 Z " fill="#AF1C16" transform="translate(68,47)"/>
<path d="M0 0 C-0.66 0 -1.32 0 -2 0 C-2.33 0.99 -2.66 1.98 -3 3 C-4.32 3 -5.64 3 -7 3 C-7.33 4.32 -7.66 5.64 -8 7 C-9.65 6.67 -11.3 6.34 -13 6 C-5.46629213 -1.95224719 -5.46629213 -1.95224719 0 0 Z " fill="#A6190D" transform="translate(536,46)"/>
<path d="M0 0 C3.48331435 3.01887244 4.79157144 5.56909529 6 10 C5.34 10.66 4.68 11.32 4 12 C3.01 11.34 2.02 10.68 1 10 C0.875 7.125 0.875 7.125 1 4 C0.56058477 1.73433657 0.56058477 1.73433657 0 0 Z " fill="#B41B13" transform="translate(273,51)"/>
<path d="M0 0 C1.65 0.33 3.3 0.66 5 1 C4.67 2.65 4.34 4.3 4 6 C2.35 5.67 0.7 5.34 -1 5 C-0.67 3.35 -0.34 1.7 0 0 Z " fill="#A6221B" transform="translate(86,48)"/>
<path d="M0 0 C0.99 0.66 1.98 1.32 3 2 C2.34 4.64 1.68 7.28 1 10 C0.67 9.01 0.34 8.02 0 7 C-0.99 7 -1.98 7 -3 7 C-2.625 4.0625 -2.625 4.0625 -2 1 C-1.34 0.67 -0.68 0.34 0 0 Z " fill="#C81007" transform="translate(113,109)"/>
<path d="M0 0 C0.66 0 1.32 0 2 0 C2.33 0.66 2.66 1.32 3 2 C5.02463255 2.65213292 5.02463255 2.65213292 7 3 C6.67 4.32 6.34 5.64 6 7 C5.4225 6.690625 4.845 6.38125 4.25 6.0625 C2.15705816 5.07416636 0.25464725 4.4831387 -2 4 C-1.34 2.68 -0.68 1.36 0 0 Z " fill="#CD0F04" transform="translate(559,50)"/>
<path d="M0 0 C0.61875 0.86625 0.61875 0.86625 1.25 1.75 C3.02282212 4.02934272 4.92683349 5.99370983 7 8 C7.66 8.66 8.32 9.32 9 10 C8.46375 9.855625 7.9275 9.71125 7.375 9.5625 C4.60084173 8.90546252 1.81474612 8.44780052 -1 8 C-0.67 5.36 -0.34 2.72 0 0 Z " fill="#B31C17" transform="translate(527,123)"/>
<path d="M0 0 C1.2380014 3.57644848 0.74926071 6.33694766 0 10 C-1.65 10.33 -3.3 10.66 -5 11 C-3.55049545 7.2089881 -1.84827434 3.6125362 0 0 Z " fill="#B41A11" transform="translate(606,105)"/>
<path d="M0 0 C2 2 2 2 2 5 C-0.31 5.33 -2.62 5.66 -5 6 C-5 4.68 -5 3.36 -5 2 C-3.35 1.34 -1.7 0.68 0 0 Z " fill="#CB0F07" transform="translate(322,57)"/>
<path d="M0 0 C0.33 0 0.66 0 1 0 C1.33 1.98 1.66 3.96 2 6 C1.01 6 0.02 6 -1 6 C-1 7.32 -1 8.64 -1 10 C-1.66 10 -2.32 10 -3 10 C-3 10.66 -3 11.32 -3 12 C-3.66 12 -4.32 12 -5 12 C-3.68938409 7.76570244 -2.05643741 3.92592596 0 0 Z " fill="#A71D14" transform="translate(614,89)"/>
<path d="M0 0 C0.33 0 0.66 0 1 0 C1.12375 0.969375 1.2475 1.93875 1.375 2.9375 C1.684375 4.4534375 1.684375 4.4534375 2 6 C2.66 6.33 3.32 6.66 4 7 C3.67 7.66 3.34 8.32 3 9 C2.34 9 1.68 9 1 9 C0.67 10.32 0.34 11.64 0 13 C-0.66 13 -1.32 13 -2 13 C-1.855625 12.154375 -1.71125 11.30875 -1.5625 10.4375 C-0.9941203 6.96406851 -0.48797607 3.48554338 0 0 Z " fill="#B31910" transform="translate(630,54)"/>
<path d="M0 0 C0.33 0 0.66 0 1 0 C1.33 2.64 1.66 5.28 2 8 C-0.8125 10.0625 -0.8125 10.0625 -4 12 C-4.99 11.67 -5.98 11.34 -7 11 C-6.21625 10.29875 -5.4325 9.5975 -4.625 8.875 C-1.91639182 5.90842914 -0.98277285 3.8417484 0 0 Z " fill="#AC1B16" transform="translate(562,120)"/>
<path d="M0 0 C1.85486952 2.78230428 2.72462112 4.84363607 3.6875 8 C3.95949219 8.86625 4.23148437 9.7325 4.51171875 10.625 C5 13 5 13 4 16 C0.41624224 12.41624224 0.07612239 6.86499859 -0.125 1.9375 C-0.08375 1.298125 -0.0425 0.65875 0 0 Z " fill="#A9241A" transform="translate(335,60)"/>
<path d="M0 0 C0.804375 0.309375 1.60875 0.61875 2.4375 0.9375 C6.62249087 2.18565517 10.66306101 2.6337696 15 3 C15 3.33 15 3.66 15 4 C13.06494977 4.24900646 11.12674066 4.47356242 9.1875 4.6875 C8.10855469 4.81511719 7.02960937 4.94273438 5.91796875 5.07421875 C3 5 3 5 1.11328125 3.64453125 C0 2 0 2 0 0 Z " fill="#D11109" transform="translate(540,49)"/>
<path d="M0 0 C10.55808656 -0.3690205 10.55808656 -0.3690205 15 2 C15 2.33 15 2.66 15 3 C13.06183265 2.8858134 11.12444901 2.75826577 9.1875 2.625 C8.10855469 2.55539063 7.02960938 2.48578125 5.91796875 2.4140625 C3 2 3 2 0 0 Z " fill="#A61C10" transform="translate(461,141)"/>
<path d="M0 0 C1.18771723 3.42943519 0.80226223 5.37784675 -0.4375 8.75 C-0.86869141 9.94882813 -0.86869141 9.94882813 -1.30859375 11.171875 C-1.65083984 12.07679688 -1.65083984 12.07679688 -2 13 C-2.33 13 -2.66 13 -3 13 C-3 10.03 -3 7.06 -3 4 C-2.34 4 -1.68 4 -1 4 C-0.67 2.68 -0.34 1.36 0 0 Z " fill="#AF1D17" transform="translate(306,120)"/>
<path d="M0 0 C0 0.66 0 1.32 0 2 C-1.670625 2.12375 -1.670625 2.12375 -3.375 2.25 C-7.05753944 2.57873787 -7.05753944 2.57873787 -8.4375 5.0625 C-8.623125 5.701875 -8.80875 6.34125 -9 7 C-9.25 4.6875 -9.25 4.6875 -9 2 C-6.04897468 -1.27891703 -4.09533092 -1.25135112 0 0 Z " fill="#A81D18" transform="translate(477,89)"/>
<path d="M0 0 C0.99 0.99 1.98 1.98 3 3 C2.1875 4.9375 2.1875 4.9375 1 7 C0.01 7.33 -0.98 7.66 -2 8 C-3.32 6.68 -4.64 5.36 -6 4 C-3.69 4 -1.38 4 1 4 C0.67 2.68 0.34 1.36 0 0 Z " fill="#9D1F16" transform="translate(97,114)"/>
<path d="M0 0 C2.475 0.99 2.475 0.99 5 2 C5 2.66 5 3.32 5 4 C2.08517222 4.80967438 0.53886783 5.21845993 -2.3125 4.0625 C-2.869375 3.711875 -3.42625 3.36125 -4 3 C-3.01 2.34 -2.02 1.68 -1 1 C-0.67 0.67 -0.34 0.34 0 0 Z " fill="#C5160D" transform="translate(93,114)"/>
<path d="M0 0 C0.99 0 1.98 0 3 0 C2.34 2.31 1.68 4.62 1 7 C-0.65 6.67 -2.3 6.34 -4 6 C-3.67 4.68 -3.34 3.36 -3 2 C-2.01 2 -1.02 2 0 2 C0 1.34 0 0.68 0 0 Z " fill="#BA1609" transform="translate(611,99)"/>
<path d="M0 0 C0.66 0.33 1.32 0.66 2 1 C1.814375 1.78375 1.62875 2.5675 1.4375 3.375 C0.74037734 5.97089775 0.74037734 5.97089775 2 8 C4.01669827 9.13350534 4.01669827 9.13350534 6 10 C1.55063291 10.36075949 1.55063291 10.36075949 -0.8125 8.8125 C-2.40199375 6.3864306 -2.36487512 4.84602594 -2 2 C-1.34 1.34 -0.68 0.68 0 0 Z " fill="#9D2523" transform="translate(541,89)"/>
<path d="M0 0 C0.66 0 1.32 0 2 0 C1.25 6.75 1.25 6.75 -1 9 C-1.33 7.68 -1.66 6.36 -2 5 C-2.66 5 -3.32 5 -4 5 C-3.67 4.01 -3.34 3.02 -3 2 C-2.01 1.67 -1.02 1.34 0 1 C0 0.67 0 0.34 0 0 Z " fill="#B71406" transform="translate(128,87)"/>
<path d="M0 0 C2.64 0.66 5.28 1.32 8 2 C8 2.33 8 2.66 8 3 C7.38511719 3.19335938 6.77023437 3.38671875 6.13671875 3.5859375 C4.92435547 3.97652344 4.92435547 3.97652344 3.6875 4.375 C2.88699219 4.63023438 2.08648438 4.88546875 1.26171875 5.1484375 C-1.22724528 5.98831811 -1.22724528 5.98831811 -4 8 C-2.66666667 5.33333333 -1.33333333 2.66666667 0 0 Z " fill="#AC1C13" transform="translate(534,51)"/>
<path d="M0 0 C0.93065133 2.60582371 1.14917407 3.64198224 0.0625 6.25 C-0.4634375 7.11625 -0.4634375 7.11625 -1 8 C-1.66 8 -2.32 8 -3 8 C-3 8.99 -3 9.98 -3 11 C-3.66 11 -4.32 11 -5 11 C-3.77472971 6.94718288 -2.30119506 3.55639236 0 0 Z " fill="#A11B15" transform="translate(124,85)"/>
<path d="M0 0 C1.32 0.33 2.64 0.66 4 1 C3.67 1.99 3.34 2.98 3 4 C2.01 4.33 1.02 4.66 0 5 C-0.33 5.66 -0.66 6.32 -1 7 C-1.66 7 -2.32 7 -3 7 C-1.125 2.25 -1.125 2.25 0 0 Z " fill="#A71411" transform="translate(618,82)"/>
<path d="M0 0 C0.33 0 0.66 0 1 0 C2.75747614 4.50353262 3.19294408 8.17639811 3 13 C1.12396022 10.18594033 0.50907198 8.59075334 -0.1875 5.375 C-0.36667969 4.57835938 -0.54585938 3.78171875 -0.73046875 2.9609375 C-0.81941406 2.31382813 -0.90835937 1.66671875 -1 1 C-0.67 0.67 -0.34 0.34 0 0 Z " fill="#A92119" transform="translate(328,64)"/>
<path d="M0 0 C0.33 1.65 0.66 3.3 1 5 C-1.02045442 4.39816251 -3.02111039 3.72693904 -5 3 C-5.33 2.34 -5.66 1.68 -6 1 C-3 0 -3 0 0 0 Z " fill="#AF1B0C" transform="translate(460,136)"/>
<path d="M0 0 C0.66 0.33 1.32 0.66 2 1 C-1.75 6.875 -1.75 6.875 -4 8 C-4.33 6.68 -4.66 5.36 -5 4 C-4.360625 3.71125 -3.72125 3.4225 -3.0625 3.125 C-0.84793921 2.17176549 -0.84793921 2.17176549 0 0 Z " fill="#B3221D" transform="translate(569,128)"/>
<path d="M0 0 C-0.75 4.75 -0.75 4.75 -3 7 C-3.66 5.02 -4.32 3.04 -5 1 C-3 0 -3 0 0 0 Z " fill="#B81A15" transform="translate(499,127)"/>
<path d="M0 0 C1.485 0.99 1.485 0.99 3 2 C3.1875 5.125 3.1875 5.125 3 8 C1.68 7.67 0.36 7.34 -1 7 C-1.04254356 5.00045254 -1.04080783 2.99958364 -1 1 C-0.67 0.67 -0.34 0.34 0 0 Z " fill="#C91103" transform="translate(160,96)"/>
<path d="M0 0 C0.33 0.99 0.66 1.98 1 3 C3.64 3 6.28 3 9 3 C9 3.33 9 3.66 9 4 C6.03 4.66 3.06 5.32 0 6 C-0.38218767 4.34385343 -0.71395102 2.67542976 -1 1 C-0.67 0.67 -0.34 0.34 0 0 Z " fill="#A6180C" transform="translate(462,50)"/>
<path d="M0 0 C3.63 0 7.26 0 11 0 C11 0.33 11 0.66 11 1 C9.5437328 1.36256858 8.08488815 1.71479793 6.625 2.0625 C5.40683594 2.35833984 5.40683594 2.35833984 4.1640625 2.66015625 C2 3 2 3 0 2 C0 1.34 0 0.68 0 0 Z " fill="#C61611" transform="translate(68,43)"/>
<path d="M0 0 C2.475 0.99 2.475 0.99 5 2 C3.02579865 4.52259061 2.03254358 4.9929808 -1.1875 5.6875 C-2.5796875 5.8421875 -2.5796875 5.8421875 -4 6 C-4 5.34 -4 4.68 -4 4 C-2.68 3.67 -1.36 3.34 0 3 C0 2.01 0 1.02 0 0 Z " fill="#AA1C0E" transform="translate(266,135)"/>
<path d="M0 0 C0.66 0.33 1.32 0.66 2 1 C1.60196439 3.88575819 1.20990931 4.82189513 -1.0625 6.75 C-1.701875 7.1625 -2.34125 7.575 -3 8 C-3.33 6.68 -3.66 5.36 -4 4 C-2.68 3.34 -1.36 2.68 0 2 C0 1.34 0 0.68 0 0 Z " fill="#B31A0C" transform="translate(95,84)"/>
<path d="M0 0 C2 2 2 2 3 5 C3.66 5.66 4.32 6.32 5 7 C3.35 6.67 1.7 6.34 0 6 C-1.125 2.25 -1.125 2.25 0 0 Z " fill="#A81F1C" transform="translate(106,117)"/>
<path d="M0 0 C1.32 0.33 2.64 0.66 4 1 C4.33 2.65 4.66 4.3 5 6 C4.01 6.33 3.02 6.66 2 7 C2 5.68 2 4.36 2 3 C1.34 2.67 0.68 2.34 0 2 C0 1.34 0 0.68 0 0 Z " fill="#AF1914" transform="translate(131,76)"/>
<path d="M0 0 C2.79872437 2.52788007 4.45773019 4.20411134 5 8 C4.34 8 3.68 8 3 8 C3 7.34 3 6.68 3 6 C2.34 6 1.68 6 1 6 C0.67 4.02 0.34 2.04 0 0 Z " fill="#AA1F13" transform="translate(494,51)"/>
</svg>
