<?xml version="1.0" encoding="UTF-8"?>
<svg version="1.1" xmlns="http://www.w3.org/2000/svg" width="1024" height="289">
<path d="M0 0 C6.30214206 4.42490826 8.02167391 11.41965217 9.66796875 18.59375 C10.10190649 21.73852235 10.0196455 24.8289855 10 28 C10.76928329 27.88946793 11.53856659 27.77893585 12.3311615 27.66505432 C19.61264761 26.61909592 26.89432957 25.57451601 34.17623043 24.53144932 C37.91910866 23.99526707 41.66191132 23.45856884 45.40454102 22.9206543 C49.02239536 22.40069326 52.64044849 21.88213609 56.25863838 21.3645153 C57.63285929 21.16767375 59.00701019 20.9703428 60.38108635 20.77249336 C71.78722575 19.130678 82.90221858 17.80549143 94.4375 17.75 C96.03948242 17.7190625 96.03948242 17.7190625 97.67382812 17.6875 C114.26878962 17.60640062 127.78343462 25.3898974 139.7109375 36.609375 C144.48078414 41.6939831 148.8016993 48.76569689 149.1328125 55.8359375 C149.06707031 56.90714844 149.06707031 56.90714844 149 58 C149.99 57.67 150.98 57.34 152 57 C154.24419811 56.8920797 156.49153167 56.84575343 158.73828125 56.83203125 C159.40712341 56.82775116 160.07596558 56.82347107 160.76507568 56.81906128 C162.94761756 56.80902016 165.12993925 56.8090198 167.3125 56.8125 C168.05619843 56.81343658 168.79989685 56.81437317 169.56613159 56.81533813 C194.31842379 56.88301927 219.66361659 57.18042973 239.3125 74.5 C242.43353901 77.94007856 244.49254667 81.60839282 246.41796875 85.80078125 C246.8733905 86.78749565 246.8733905 86.78749565 247.3380127 87.79414368 C250.22715278 94.22570409 252.36749622 100.82071411 254.37167358 107.5748291 C255.49718827 111.3592349 256.66485301 115.13061663 257.83203125 118.90234375 C258.08008011 119.70519806 258.32812897 120.50805237 258.58369446 121.3352356 C261.75800442 131.53814685 265.22282204 141.64280644 268.6875 151.75 C269.00986633 152.69170044 269.33223267 153.63340088 269.66436768 154.6036377 C272.65042665 163.32150499 275.65537552 172.03260175 278.69921875 180.73046875 C279.26539917 182.34840332 279.26539917 182.34840332 279.84301758 183.99902344 C280.50175935 185.87473102 281.16400194 187.74921528 281.83081055 189.62207031 C284.19987539 196.33476136 285.97566715 202.81908978 285 210 C283.20606332 212.87029869 282.01736724 214.49131638 279 216 C268.86562346 216.68715392 259.19495295 215.33500017 249.25 213.5625 C247.23629684 213.21276693 245.22206807 212.86646436 243.20721436 212.52342224 C241.38999751 212.21267422 239.57432699 211.89292112 237.75878906 211.57250977 C230.03155577 210.39555718 222.38646003 209.83972704 214.57421875 209.796875 C213.71242004 209.78990601 212.85062134 209.78293701 211.96270752 209.77575684 C209.20425457 209.75849205 206.44600469 209.75203963 203.6875 209.75 C202.74625275 209.74899292 201.80500549 209.74798584 200.8352356 209.74694824 C187.34562987 209.75672822 174.22429877 210.0895176 161 213 C160.21931152 213.16580566 159.43862305 213.33161133 158.63427734 213.50244141 C152.47601016 214.82716311 146.38108272 216.29355283 140.33984375 218.0859375 C137.45064171 218.87666648 134.91833115 219.41224672 131.9375 219.5625 C130.74447266 219.65724609 130.74447266 219.65724609 129.52734375 219.75390625 C124.85002911 218.35866402 122.29773731 214.19098137 119.88696289 210.12084961 C118.87781782 208.16788528 117.95686432 206.19554729 117.0625 204.1875 C116.73185547 203.46336914 116.40121094 202.73923828 116.06054688 201.99316406 C113.57374937 196.46773685 111.24313823 190.87837441 109 185.25 C108.69715088 184.50000732 108.39430176 183.75001465 108.08227539 182.97729492 C107.80762451 182.26806885 107.53297363 181.55884277 107.25 180.828125 C107.00765625 180.2084082 106.7653125 179.58869141 106.515625 178.95019531 C105.89072539 176.5867019 105.96699227 174.4357576 106 172 C105.37217117 172.11275269 104.74434235 172.22550537 104.0974884 172.3416748 C97.56094767 173.51470777 91.02335029 174.6817075 84.48510742 175.84521484 C82.04537802 176.28019153 79.60592193 176.7167041 77.16674805 177.15478516 C73.66005092 177.78432044 70.15240696 178.40831994 66.64453125 179.03125 C65.00989677 179.32654602 65.00989677 179.32654602 63.34223938 179.62780762 C62.32155869 179.80799438 61.30087799 179.98818115 60.24926758 180.17382812 C59.35436111 180.33371216 58.45945465 180.49359619 57.53742981 180.6583252 C54.99202184 181.00107429 52.56499107 181.06098069 50 181 C50.20044922 181.74121094 50.40089844 182.48242188 50.60742188 183.24609375 C52.90347572 191.75346787 55.17143961 200.26798417 57.41699219 208.78881836 C57.80502211 210.2605047 58.19369193 211.73202247 58.58300781 213.20336914 C59.72565255 217.52381451 60.85458126 221.84744758 61.96508789 226.17626953 C62.31811675 227.54488071 62.67529277 228.9124297 63.03686523 230.27880859 C68.05378903 249.27529115 68.05378903 249.27529115 64.95361328 254.89770508 C61.94237058 258.67088846 59.98210737 259.86905235 55.25 260.5 C51.85475323 260.41404439 50.1822947 259.82481375 47.8125 257.375 C40.62594574 247.22144669 38.59202605 233.64703067 35.99980736 221.72729492 C31.11859994 199.37515818 25.63513399 177.18205359 20.04296875 155 C19.84455084 154.21246338 19.64613294 153.42492676 19.44170237 152.61352539 C16.99015409 142.88357247 14.53095391 133.15556575 12.06781495 123.42854118 C9.75477411 114.29337292 7.44871334 105.15644475 5.14257812 96.01953125 C2.59517007 85.92754015 0.04658682 75.83585031 -2.50639588 65.74526787 C-4.02808913 59.73042075 -5.5474314 53.71498247 -7.06573868 47.69927979 C-7.68369872 45.25241934 -8.30245773 42.80576052 -8.92205429 40.35931396 C-9.76889473 37.01484675 -10.61274242 33.66963855 -11.45581055 30.32421875 C-11.70184682 29.35547318 -11.94788309 28.3867276 -12.20137501 27.3886261 C-16.07604713 11.96868618 -16.07604713 11.96868618 -15 5 C-11.40563789 -0.87079145 -6.34813045 -1.28635922 0 0 Z M60.33911133 41.34375 C57.17394387 41.75174742 54.00646319 42.13507429 50.83789062 42.515625 C39.01326769 43.97590612 27.51935782 45.94490433 16 49 C15.6833492 55.13294316 16.85791941 60.44873808 18.35546875 66.37890625 C18.61772751 67.44363663 18.87998627 68.508367 19.15019226 69.60536194 C19.91662228 72.7037153 20.69145765 75.79982768 21.47063446 78.89499664 C22.02903678 81.11546372 22.58487519 83.33656107 23.14019775 85.55780029 C25.72321372 95.88590798 28.32765896 106.20850456 30.94262695 116.52856445 C32.09967268 121.09506033 33.2531212 125.66245692 34.40571308 130.2300787 C35.30055573 133.77424096 36.19751861 137.31786397 37.09511375 140.86133003 C37.52205935 142.54809845 37.94827555 144.23505167 38.37374306 145.92219353 C38.96220833 148.25460225 39.55358892 150.58625238 40.14575195 152.91772461 C40.31974518 153.60996628 40.4937384 154.30220795 40.67300415 155.01542664 C41.58228357 158.59801298 41.58228357 158.59801298 43 162 C50.87897319 161.47052523 58.41153931 160.21929196 66.125 158.5625 C90.38945838 153.54461215 114.28832913 152.84808721 139 152.9375 C141.43229074 152.94252673 143.86458249 152.94708756 146.296875 152.95117188 C152.19793906 152.96208057 158.09896468 152.97872501 164 153 C163.31347141 146.61804859 163.31347141 146.61804859 161.53125 140.48046875 C161.21607422 139.64499512 160.90089844 138.80952148 160.57617188 137.94873047 C160.22103516 137.03752441 159.86589844 136.12631836 159.5 135.1875 C159.11908203 134.19121582 158.73816406 133.19493164 158.34570312 132.16845703 C156.91168113 128.43989072 155.45810339 124.71919138 154 121 C153.68901367 120.20575623 153.37802734 119.41151245 153.05761719 118.59320068 C148.72440613 107.53048544 144.35506161 96.48264425 139.95202637 85.44754028 C137.99899702 80.5437433 136.08500769 75.62885634 134.21875 70.69140625 C129.50706844 58.35867674 124.83192915 49.01841051 113.1171875 41.9375 C106.75922458 39.12216587 100.9854566 38.65409189 94.11328125 38.703125 C92.68028435 38.70956024 92.68028435 38.70956024 91.21833801 38.71612549 C80.84347434 38.86640587 70.62004636 40.01336071 60.33911133 41.34375 Z M158 78 C158.52246136 83.55710863 159.55714168 88.06815692 161.66796875 93.28637695 C161.93960846 93.96547623 162.21124817 94.6445755 162.49111938 95.34425354 C163.38100177 97.5626375 164.28412477 99.77536182 165.1875 101.98828125 C165.81229859 103.53873287 166.43622694 105.08953544 167.05932617 106.64067078 C168.6945936 110.70511414 170.34105222 114.76492814 171.9901123 118.8237915 C173.66907416 122.96132745 175.3382668 127.10279817 177.0078125 131.24414062 C178.88287867 135.89505937 180.75877555 140.54561162 182.64331055 145.19270325 C182.92894867 145.89777008 183.21458679 146.60283691 183.50888062 147.32926941 C184.27977445 149.23163923 185.05159668 151.13363277 185.82348633 153.03559875 C187.24930671 156.62816536 188.17113523 159.52377043 188.25 163.375 C188.27578125 164.12523437 188.3015625 164.87546875 188.328125 165.6484375 C187.48630078 171.68151105 183.08590597 174.91319047 178.625 178.5 C172.52788421 183.44214252 172.52788421 183.44214252 167 189 C167 189.99 167 190.98 167 192 C168.27875 192.020625 169.5575 192.04125 170.875 192.0625 C171.59429687 192.07410156 172.31359375 192.08570313 173.0546875 192.09765625 C175.60725814 192.01302194 178.0654899 191.78551079 180.60107422 191.50219727 C185.52592524 191.00202796 190.38106576 190.85482417 195.328125 190.8671875 C196.61842873 190.86520859 196.61842873 190.86520859 197.93479919 190.8631897 C200.70657065 190.86129013 203.47823898 190.86757711 206.25 190.875 C207.19477203 190.87588623 208.13954407 190.87677246 209.11294556 190.87768555 C225.75902501 190.89598974 242.36959267 191.26304854 259 192 C258.46951143 184.87061748 256.84132042 178.69833256 254.53515625 171.94921875 C254.18603683 170.90479111 253.83691742 169.86036346 253.47721863 168.7842865 C252.34816454 165.41552042 251.20584163 162.05144098 250.0625 158.6875 C249.28241487 156.37238894 248.50279386 154.05712144 247.72363281 151.74169922 C242.33373751 135.76346808 236.87976152 119.80573799 231 104 C230.58314941 102.85829346 230.16629883 101.71658691 229.73681641 100.5402832 C229.30546387 99.38101318 228.87411133 98.22174316 228.4296875 97.02734375 C228.04022949 95.97281006 227.65077148 94.91827637 227.24951172 93.83178711 C224.46574265 87.5228896 220.28800406 84.26240967 214 81.6875 C201.10305711 77.72812362 187.914381 77.72810852 174.5625 77.875 C172.9446671 77.88506579 171.32682802 77.89418518 169.70898438 77.90234375 C165.80583257 77.92403572 161.90298784 77.95835959 158 78 Z M127 170 C128.01327449 175.08174627 129.05337151 179.82716814 131.375 184.5 C131.97441406 185.75296875 131.97441406 185.75296875 132.5859375 187.03125 C133.85357905 189.0952922 133.85357905 189.0952922 135.875 190.02734375 C139.14735923 189.98523619 140.32670097 188.31213798 142.625 186.0625 C146.9455793 181.94766257 151.41914624 178.24234248 156.1640625 174.62890625 C156.76992187 174.09136719 157.37578125 173.55382812 158 173 C158 172.34 158 171.68 158 171 C151.10381142 170.09429581 144.38791455 169.8777016 137.4375 169.9375 C135.92446289 169.94426758 135.92446289 169.94426758 134.38085938 169.95117188 C131.92050853 169.96283231 129.46028761 169.97919622 127 170 Z " fill="#01FD00" transform="translate(24,19)"/>
<path d="M0 0 C11.3264242 10.59692569 17.05225888 24.45753019 17.80078125 39.78515625 C18.27888319 59.21951232 15.50455983 78.51676591 1.8046875 93.28125 C-7.02037074 101.57044132 -18.4270003 106.01515191 -30.5078125 106.34375 C-41.7792565 105.91161796 -51.43862471 103.06584389 -61.5078125 98.03125 C-61.54539673 99.31418945 -61.54539673 99.31418945 -61.58374023 100.62304688 C-61.68045519 103.88109094 -61.7795552 107.13904618 -61.88012695 110.39697266 C-61.92270823 111.79115075 -61.96441333 113.18535596 -62.00512695 114.57958984 C-62.06475105 116.61564248 -62.12782572 118.65156745 -62.19140625 120.6875 C-62.22806396 121.90244141 -62.26472168 123.11738281 -62.30249023 124.36914062 C-62.60603582 131.26153826 -63.0774598 138.14560685 -63.5078125 145.03125 C-76.0478125 145.03125 -88.5878125 145.03125 -101.5078125 145.03125 C-101.5078125 94.87125 -101.5078125 44.71125 -101.5078125 -6.96875 C-89.6278125 -6.96875 -77.7478125 -6.96875 -65.5078125 -6.96875 C-64.5178125 -4.65875 -63.5278125 -2.34875 -62.5078125 0.03125 C-61.98574219 -0.35546875 -61.46367188 -0.7421875 -60.92578125 -1.140625 C-42.2203724 -14.37527504 -18.32202526 -14.383646 0 0 Z M-59.5078125 32.90625 C-64.37012993 39.13001631 -65.45504745 45.26626229 -64.5078125 53.03125 C-62.46455858 60.01144716 -58.97655357 64.66235366 -52.9453125 68.78125 C-46.38185651 72.14712487 -38.67125921 71.91286629 -31.6953125 69.96875 C-26.62470139 66.88661383 -23.52242727 63.33719266 -21.1328125 57.90625 C-19.51511893 47.87654989 -19.57806005 39.85812432 -25.3203125 31.34375 C-29.68256808 26.73222267 -32.87096045 24.76870988 -39.2578125 24.53125 C-47.44283399 24.85581095 -53.84725832 26.81385973 -59.5078125 32.90625 Z " fill="#00A19C" transform="translate(968.5078125,122.96875)"/>
<path d="M0 0 C36.3 0 72.6 0 110 0 C110 11.88 110 23.76 110 36 C86.57 36 63.14 36 39 36 C39 44.58 39 53.16 39 62 C58.14 62 77.28 62 97 62 C97 73.55 97 85.1 97 97 C77.53 97 58.06 97 38 97 C38 113.83 38 130.66 38 148 C25.46 148 12.92 148 0 148 C0 99.16 0 50.32 0 0 Z " fill="#FF2800" transform="translate(344,78)"/>
<path d="M0 0 C5.77784552 5.19816036 9.60300491 10.60926515 12 18 C12 21.63 12 25.26 12 29 C-0.21 29 -12.42 29 -25 29 C-25 27.35 -25 25.7 -25 24 C-31.27 24 -37.54 24 -44 24 C-44 25.98 -44 27.96 -44 30 C-43.4652002 30.03448242 -42.93040039 30.06896484 -42.37939453 30.10449219 C-34.79780613 30.71951089 -27.43373216 32.18590809 -20.01318359 33.79150391 C-17.87497124 34.25000617 -15.73285113 34.68563465 -13.58984375 35.12109375 C-2.02373732 37.55692109 5.95350983 41.18724843 13 51 C17.67932307 59.31308311 18.29378582 68.92802651 15.875 78.0625 C12.98213014 86.64692312 7.61136321 94.02095164 0 99 C-11.16232013 104.38821343 -22.14182288 106.35362267 -34.4375 106.3125 C-35.87706055 106.33666992 -35.87706055 106.33666992 -37.34570312 106.36132812 C-52.50284342 106.37153495 -64.92235626 100.67577479 -75.83984375 90.27734375 C-81.95111281 83.83454111 -84.76494328 76.82183369 -86 68 C-85.5703125 65.640625 -85.5703125 65.640625 -85 64 C-79.33634237 63.58916473 -73.67246459 63.2626932 -68 63 C-67.113125 62.9577832 -66.22625 62.91556641 -65.3125 62.87207031 C-62.62497988 62.75912496 -59.939144 62.68654556 -57.25 62.625 C-56.4053418 62.58697266 -55.56068359 62.54894531 -54.69042969 62.50976562 C-50.2663246 62.44918585 -48.59323077 62.51441508 -45.05078125 65.4140625 C-44.37402344 66.26742187 -43.69726562 67.12078125 -43 68 C-38.55836973 71.76865599 -34.99596194 72.13090431 -29.25 72.0625 C-28.26515625 72.05347656 -27.2803125 72.04445313 -26.265625 72.03515625 C-25.51796875 72.02355469 -24.7703125 72.01195312 -24 72 C-23.67 69.69 -23.34 67.38 -23 65 C-23.94637329 64.84108276 -23.94637329 64.84108276 -24.91186523 64.67895508 C-32.7085459 63.32084174 -40.3786839 61.5764209 -48.0625 59.6875 C-49.26455078 59.40455078 -50.46660156 59.12160156 -51.70507812 58.83007812 C-62.9199747 56.07071186 -72.27688833 52.83184855 -79 43 C-83.91681143 34.20054042 -84.37012816 23.40589215 -81.9375 13.75 C-78.58384361 4.01659728 -70.51399189 -1.46383298 -61.8125 -6.1875 C-42.72057959 -15.46071849 -16.85248752 -12.71459996 0 0 Z " fill="#01A19C" transform="translate(833,123)"/>
<path d="M0 0 C0.74567734 0.00328812 1.49135468 0.00657623 2.2596283 0.00996399 C3.83406312 0.02037843 5.40845969 0.04031788 6.98266602 0.0690918 C9.39686076 0.11318112 11.81006181 0.13052875 14.22460938 0.14257812 C15.75392064 0.15600183 17.28321964 0.1709247 18.8125 0.1875 C19.53647476 0.19488693 20.26044952 0.20227386 21.00636292 0.20988464 C26.10307292 0.30739584 26.10307292 0.30739584 28.33984375 1.42578125 C28.12306099 10.58279495 25.17301412 18.75134381 22.21484375 27.30078125 C21.67720865 28.87980971 21.14053153 30.45916463 20.60473633 32.03881836 C19.45778825 35.41418016 18.30433893 38.78722341 17.14599609 42.15869141 C15.32729166 47.45496461 13.52959807 52.75823032 11.734375 58.0625 C4.99296983 77.95926652 -1.85799353 97.81667461 -8.79931641 117.64453125 C-12.37724202 127.86722629 -15.93322751 138.09714084 -19.46484375 148.3359375 C-19.87141708 149.51392914 -20.27799042 150.69192078 -20.69688416 151.90560913 C-23.11298316 158.90641018 -23.11298316 158.90641018 -25.52407837 165.90893555 C-26.63372261 169.13533829 -27.74631498 172.36071185 -28.859375 175.5859375 C-29.18481293 176.53517593 -29.51025085 177.48441437 -29.84555054 178.4624176 C-30.76557286 181.12374649 -31.70791134 183.77582856 -32.66015625 186.42578125 C-32.98513092 187.35800507 -33.31010559 188.29022888 -33.64492798 189.2507019 C-33.97584442 190.15079987 -34.30676086 191.05089783 -34.64770508 191.97827148 C-34.93825272 192.78538071 -35.22880035 193.59248993 -35.52815247 194.42405701 C-36.91725396 196.88040757 -38.03689883 197.47644596 -40.66015625 198.42578125 C-43.26635742 198.66870117 -43.26635742 198.66870117 -46.203125 198.65625 C-47.27755859 198.65431641 -48.35199219 198.65238281 -49.45898438 198.65039062 C-50.57724609 198.63814453 -51.69550781 198.62589844 -52.84765625 198.61328125 C-54.49604492 198.61231445 -54.49604492 198.61231445 -56.17773438 198.61132812 C-62.41606716 198.5778487 -68.47535421 198.24214899 -74.66015625 197.42578125 C-74.39705568 188.60089575 -71.70737078 180.74197032 -68.84765625 172.48828125 C-68.32297288 170.94833899 -67.79933139 169.40804144 -67.27661133 167.86743164 C-66.09078644 164.3775479 -64.89865469 160.88989087 -63.703125 157.40332031 C-61.42800832 150.75909769 -59.18474561 144.10422438 -56.94140625 137.44921875 C-47.63130854 109.84954781 -38.23478837 82.28156041 -28.5546875 54.80908203 C-27.20342414 50.97322328 -25.85796406 47.13537752 -24.515625 43.29638672 C-22.67778076 38.0406146 -20.83259359 32.78747346 -18.9822998 27.53607178 C-18.27400747 25.52260383 -17.56799044 23.50833387 -16.86437988 21.4932251 C-15.89154127 18.70921843 -14.90980725 15.92850614 -13.92578125 13.1484375 C-13.63896484 12.32145859 -13.35214844 11.49447968 -13.05664062 10.6424408 C-10.28437257 2.86824865 -8.82217524 -0.21394736 0 0 Z " fill="#FB7F02" transform="translate(632.66015625,61.57421875)"/>
<path d="M0 0 C12.21 0 24.42 0 37 0 C35.87480973 11.25190274 35.87480973 11.25190274 34.4609375 15.37109375 C34.13641602 16.33257324 33.81189453 17.29405273 33.47753906 18.28466797 C33.11370117 19.32510254 32.74986328 20.36553711 32.375 21.4375 C31.98022461 22.5939502 31.58544922 23.75040039 31.17871094 24.94189453 C29.7993736 28.96608783 28.40139787 32.98345504 27 37 C26.48130736 38.49067466 25.96275612 39.98139853 25.44433594 41.47216797 C23.08507339 48.25309476 20.72059831 55.03218499 18.34838867 61.80859375 C13.19460127 76.53590733 8.10153159 91.28378628 3.02810669 106.03894043 C1.69058402 109.92887181 0.35209499 113.8184702 -0.98657227 117.70800781 C-6.32866772 133.23036972 -6.32866772 133.23036972 -11.66308594 148.75537109 C-13.77108297 154.89538102 -15.88348131 161.0338661 -17.99862671 167.17141724 C-18.7865127 169.46016365 -19.57284782 171.74944456 -20.35757446 174.03927612 C-21.43627048 177.18640913 -22.5202157 180.33168573 -23.60546875 183.4765625 C-23.92216522 184.40474289 -24.23886169 185.33292328 -24.56515503 186.28923035 C-24.85842682 187.13560562 -25.15169861 187.9819809 -25.45385742 188.85400391 C-25.83183723 189.95369003 -25.83183723 189.95369003 -26.217453 191.07559204 C-27 193 -27 193 -29 196 C-32.08249544 197.02749848 -34.21614821 197.12907442 -37.4453125 197.1328125 C-39.06179688 197.13474609 -39.06179688 197.13474609 -40.7109375 197.13671875 C-42.40089844 197.13091797 -42.40089844 197.13091797 -44.125 197.125 C-45.2284375 197.12886719 -46.331875 197.13273438 -47.46875 197.13671875 C-53.73029906 197.12928223 -59.79267741 196.82676813 -66 196 C-65.53938835 189.30164888 -64.45521934 183.22135597 -62.42578125 176.828125 C-62.03003654 175.5475119 -62.03003654 175.5475119 -61.626297 174.24102783 C-58.33144536 163.68313487 -54.76757395 153.21378563 -51.1875 142.75 C-50.82073151 141.67386444 -50.45396301 140.59772888 -50.07608032 139.48898315 C-44.40023039 122.83668609 -38.57751971 106.2398451 -32.65475464 89.67391968 C-28.20338981 77.21791101 -23.86963946 64.7271121 -19.66015625 52.1875 C-19.20471496 50.83274901 -18.74924525 49.47800758 -18.29374695 48.12327576 C-16.29018297 42.16034094 -14.2921402 36.19573977 -12.31520748 30.22391701 C-11.30514915 27.17966813 -10.28421164 24.13906026 -9.265625 21.09765625 C-8.90795547 20.00602173 -8.55028595 18.91438721 -8.18177795 17.78967285 C-7.83594162 16.76216919 -7.49010529 15.73466553 -7.13378906 14.67602539 C-6.84086975 13.79266006 -6.54795044 12.90929474 -6.24615479 11.99916077 C-4.51599106 7.83512013 -2.18985121 3.94173219 0 0 Z " fill="#FB7F02" transform="translate(698,63)"/>
<path d="M0 0 C0 48.84 0 97.68 0 148 C-12.54 148 -25.08 148 -38 148 C-38 114.67 -38 81.34 -38 47 C-47.24 47 -56.48 47 -66 47 C-66 36.77 -66 26.54 -66 16 C-61.854375 15.1646875 -61.854375 15.1646875 -57.625 14.3125 C-34.14519239 9.23544379 -28.76323327 0 0 0 Z " fill="#FE2700" transform="translate(530,78)"/>
</svg>
